<?xml version="1.0" encoding="UTF-8"?> <svg xmlns="http://www.w3.org/2000/svg" version="1.2" viewBox="0 0 242 96" width="242" height="96"><title>411Locals-logo-slogan-svg</title><style> .s0 { fill: #1b5fc8 } </style><path id="Layer" fill-rule="evenodd" class="s0" d="m38.8 48q1.6-0.3 3.3-0.3c1.4-0.2 2.8 0.2 3.9 1 0.8 0.6 1.2 1.5 1.2 2.5-0.1 1.4-1 2.7-2.4 3.1 1.7 0.4 3 1.9 2.9 3.7 0 1.1-0.4 2.1-1.2 2.9-1 0.9-2.6 1.3-4.9 1.3-1 0-1.9 0-2.9-0.2zm3.6 5.8c1.9 0 3.1-1 3.1-2.4 0-1.7-1.3-2.3-3.1-2.3-0.5 0-1.1 0-1.6 0.1v4.6zm-1.7 6.9c0.5 0.1 1 0.1 1.6 0.1 1.9 0 3.6-0.7 3.6-2.8 0-2.1-1.7-2.8-3.7-2.8h-1.5z"></path><path id="Layer" class="s0" d="m58.8 59.3c0 1.1 0 2 0.1 2.8h-1.6l-0.1-1.7c-0.7 1.2-2 1.9-3.4 1.9-1.6 0-3.5-0.9-3.5-4.5v-6h1.8v5.6c0 1.9 0.6 3.2 2.3 3.2 1.1 0 2.1-0.7 2.4-1.7 0.1-0.3 0.2-0.6 0.2-0.9v-6.3h1.9z"></path><path id="Layer" class="s0" d="m61.6 60.2c0.7 0.5 1.6 0.7 2.5 0.7 1.3 0 2-0.7 2-1.5 0-0.8-0.5-1.4-1.9-1.9-1.9-0.7-2.7-1.7-2.7-2.9 0-1.6 1.3-3 3.5-3 0.9 0 1.7 0.2 2.5 0.6l-0.4 1.3q-0.9-0.6-2.1-0.6c-1.1 0-1.7 0.6-1.7 1.4 0 0.8 0.6 1.2 1.9 1.7 1.8 0.7 2.7 1.6 2.7 3.1 0 1.8-1.4 3.1-3.8 3.1-1 0-2-0.2-2.9-0.7z"></path><path id="Layer" class="s0" d="m72.3 49c0 0.6-0.5 1.1-1.1 1.2h-0.1c-0.6 0-1.1-0.6-1.1-1.2 0-0.6 0.6-1.1 1.2-1.1 0.6 0 1.1 0.5 1.1 1.1zm-2.1 2.9h1.9v10.2h-1.9z"></path><path id="Layer" class="s0" d="m75.2 54.6c0-1.1 0-1.9-0.1-2.8h1.6l0.1 1.7c0.7-1.2 2-2 3.4-1.9 1.4 0 3.6 0.8 3.6 4.3v6.1h-1.8v-5.9c0-1.6-0.6-3-2.4-3-1.2 0-2.2 0.8-2.5 1.9-0.1 0.3-0.1 0.6-0.1 0.9v6.2h-1.9z"></path><path id="Layer" fill-rule="evenodd" class="s0" d="m88 57.3c-0.2 1.8 1.1 3.4 2.9 3.6 0.2 0 0.4 0 0.5 0 1 0 1.9-0.1 2.8-0.5l0.3 1.3c-1.1 0.4-2.2 0.7-3.4 0.6-3.1 0-5-2.1-5-5.2 0-3.1 1.8-5.5 4.8-5.5 3.3 0 4.2 2.9 4.2 4.8 0 0.3 0 0.6-0.1 0.9zm5.4-1.3c0-1.2-0.5-3-2.6-3-1.9 0-2.7 1.7-2.9 3z"></path><path id="Layer" class="s0" d="m97.2 60.2c0.7 0.5 1.6 0.7 2.4 0.7 1.3 0 2-0.7 2-1.5 0-0.8-0.5-1.4-1.9-1.9-1.9-0.7-2.7-1.7-2.7-2.9 0-1.6 1.3-3 3.5-3 0.9 0 1.8 0.2 2.5 0.6l-0.4 1.3q-0.9-0.6-2.1-0.6c-1.1 0-1.7 0.6-1.7 1.4 0 0.8 0.6 1.2 1.9 1.7 1.8 0.7 2.7 1.6 2.7 3.1 0 1.8-1.4 3.1-3.8 3.1-1 0-2-0.2-2.9-0.7z"></path><path id="Layer" class="s0" d="m105.6 60.2c0.7 0.5 1.6 0.7 2.4 0.7 1.3 0 2-0.7 2-1.5 0-0.8-0.5-1.4-1.9-1.9-1.9-0.7-2.7-1.7-2.7-2.9 0-1.6 1.3-3 3.5-3 0.9 0 1.7 0.2 2.5 0.6l-0.4 1.3q-0.9-0.6-2.1-0.6c-1.1 0-1.7 0.6-1.7 1.4 0 0.8 0.6 1.2 1.9 1.7 1.8 0.7 2.7 1.6 2.7 3.1 0 1.8-1.4 3.1-3.8 3.1-1 0-2-0.2-2.9-0.7z"></path><path id="Layer" class="s0" d="m118.5 59.8q1.5 0.9 3.3 0.9c1.9 0 3-1 3-2.4 0-1.4-0.8-2.1-2.7-2.8-2.3-0.8-3.8-2-3.8-4 0-2.2 1.9-3.9 4.6-3.9 1.1 0 2.2 0.2 3.2 0.7l-0.5 1.5c-0.8-0.5-1.8-0.7-2.7-0.7-1.9 0-2.7 1.2-2.7 2.2 0 1.3 0.9 2 2.8 2.7 2.4 0.9 3.6 2.1 3.6 4.2 0 2.1-1.6 4.1-5 4.1q-1.9 0-3.6-0.9z"></path><path id="Layer" fill-rule="evenodd" class="s0" d="m130.3 57.3c-0.2 1.8 1.2 3.4 3 3.6 0.2 0 0.4 0 0.5 0 1 0 1.9-0.1 2.8-0.5l0.3 1.3c-1.1 0.4-2.2 0.7-3.4 0.6-3.1 0-5-2.1-5-5.2 0-3.1 1.8-5.5 4.8-5.5 3.3 0 4.2 2.9 4.2 4.8 0 0.3 0 0.6-0.1 0.9zm5.4-1.3c0-1.2-0.5-3-2.6-3-1.9 0-2.7 1.7-2.9 3z"></path><path id="Layer" class="s0" d="m139.8 55.1c0-1.2 0-2.2-0.1-3.2h1.6l0.1 2h0.1c0.3-1.3 1.5-2.2 2.8-2.2 0.2 0 0.4 0 0.5 0.1v1.7c-0.2 0-0.4-0.1-0.6-0.1-1.3 0.1-2.4 1.1-2.5 2.4 0 0.3-0.1 0.6-0.1 0.8v5.5h-1.9v-7z"></path><path id="Layer" class="s0" d="m148 51.8l2 5.8c0.3 0.9 0.6 1.7 0.8 2.6h0.1c0.2-0.8 0.5-1.7 0.9-2.6l2-5.8h1.9l-4 10.2h-1.8l-3.9-10.1z"></path><path id="Layer" class="s0" d="m159.5 49c0 0.6-0.5 1.1-1.1 1.2h-0.1c-0.6 0-1.1-0.6-1.1-1.2 0-0.6 0.6-1.1 1.2-1.1 0.6 0 1.1 0.5 1.1 1.1zm-2.1 2.9h1.9v10.2h-1.9z"></path><path id="Layer" class="s0" d="m169.6 61.7c-0.9 0.4-1.9 0.6-2.9 0.6-2.7 0.1-5-1.9-5.1-4.6q0-0.3 0-0.6c-0.1-2.9 2.1-5.3 4.9-5.4q0.3 0 0.6 0c0.9 0 1.8 0.2 2.6 0.5l-0.4 1.4c-0.7-0.3-1.4-0.5-2.1-0.5-2.1 0.2-3.7 2-3.6 4.1 0.1 1.9 1.7 3.4 3.6 3.6 0.8 0 1.6-0.2 2.3-0.5z"></path><path id="Layer" fill-rule="evenodd" class="s0" d="m172.8 57.3c-0.2 1.8 1.2 3.4 3 3.6 0.2 0 0.4 0 0.5 0 1 0 1.9-0.1 2.8-0.5l0.3 1.3c-1.1 0.4-2.2 0.7-3.4 0.6-3.2 0-5-2.1-5-5.2 0-3.1 1.8-5.5 4.8-5.5 3.3 0 4.2 2.9 4.2 4.8 0 0.3 0 0.6-0.1 0.9zm5.4-1.3c0-1.2-0.5-3-2.6-3-1.9 0-2.7 1.7-2.9 3z"></path><path id="Layer" class="s0" d="m182 60.2c0.7 0.5 1.6 0.7 2.4 0.7 1.3 0 2-0.7 2-1.5 0-0.8-0.5-1.4-1.9-1.9-1.9-0.7-2.7-1.7-2.7-2.9 0-1.6 1.3-3 3.5-3 0.9 0 1.7 0.2 2.5 0.6l-0.4 1.3q-0.9-0.6-2.1-0.6c-1.1 0-1.7 0.6-1.7 1.4 0 0.8 0.6 1.2 1.9 1.7 1.8 0.7 2.7 1.6 2.7 3.1 0 1.8-1.4 3.1-3.8 3.1-1 0-2-0.2-2.9-0.7z"></path><path id="Layer" fill-rule="evenodd" class="s0" d="m24.4 35l-11.7-0.1-0.1-13.5 15.6-17.7h53.6v37l-36 2.3-21.5 2.1v-10.1zm-10.5-13.1l0.1 11.8 11.7 0.1v9.9l20-2 34.8-2.3v-34.4h-51.7z"></path><path id="Layer" class="s0" d="m3.6 49h-0.2c-0.1 0 0 0-0.2 0h-0.2l-0.3-1.6 1.5-0.3c0.8-0.2 38.3-9.4 102.3-9.4 37.6 0 76.6 5.2 116.2 9.3l1.5 0.2-0.1 1.5h-0.1-0.1l-1.5-0.2c-38.4-4.1-77-6.2-115.7-6.3-49.1 0-82.7 3.7-94.8 5.3-4.4 0.6-6.7 1-6.8 1z"></path><path id="Layer" class="s0" d="m92.2 9.8h6.7v20.4h11.8v4.9h-18.5z"></path><path id="Layer" fill-rule="evenodd" class="s0" d="m134.8 25.6c0.1 2.7-0.9 5.4-2.9 7.3-1.9 1.7-4.6 2.6-7.9 2.6-3.3 0-6-0.8-7.9-2.6-2-1.9-3.1-4.5-2.9-7.3-0.1-2.7 0.9-5.4 2.9-7.3 1.9-1.7 4.5-2.6 7.9-2.6 3.4 0 6 0.8 7.9 2.6 2 2 3 4.7 2.9 7.3zm-7.8 1.1l4.6-3.2h-5.6l-1.8-5.2-1.8 5.2h-5.6l4.5 3.2-1.8 5.2 4.6-3.2 4.6 3.2z"></path><path id="Layer" class="s0" d="m155.1 16.7v4.9c-0.8-0.5-1.7-1-2.6-1.3-0.9-0.3-1.8-0.4-2.7-0.4-1.5-0.1-3 0.4-4.1 1.5-1 1.1-1.5 2.6-1.4 4.2-0.1 1.5 0.4 3 1.4 4.2 1.1 1 2.6 1.6 4.1 1.5 0.9 0 1.9-0.1 2.8-0.4 0.9-0.3 1.7-0.7 2.4-1.3v5c-1.9 0.7-4 1-6 1-3.5 0-6.3-0.9-8.3-2.6-2.1-1.9-3.2-4.6-3-7.3-0.2-2.8 0.9-5.5 3-7.3 2-1.8 4.8-2.6 8.3-2.6q1.5 0 3 0.3c1.1 0 2.1 0.3 3.1 0.6z"></path><path id="Layer" fill-rule="evenodd" class="s0" d="m178.8 24.3v10.8h-6.3v-2.8c-0.7 1.1-1.7 1.9-2.8 2.5-1.2 0.6-2.5 0.8-3.8 0.8-1.8 0.1-3.6-0.5-4.9-1.7-1.3-1.1-2-2.8-1.9-4.5-0.1-1.9 0.8-3.8 2.4-4.9 1.6-1 4.1-1.6 7.4-1.6h3.7v-0.5c0.1-0.9-0.4-1.7-1.1-2.1-1.1-0.5-2.4-0.7-3.6-0.7-1.3 0-2.5 0.1-3.8 0.4-1.1 0.2-2.2 0.6-3.2 1.2v-4.6c1.3-0.3 2.7-0.5 4.1-0.7 1.3-0.1 2.7-0.2 4-0.2 3.5 0 6.1 0.7 7.6 2 1.5 1.3 2.1 3.5 2.2 6.6zm-9.5 2.3c-1-0.1-2 0.2-2.9 0.6-0.6 0.4-1 1.1-1 1.9 0 0.7 0.3 1.4 0.8 1.8 0.6 0.5 1.4 0.7 2.2 0.6 1.1 0 2.2-0.4 3-1.2 0.8-0.8 1.3-1.9 1.2-3.1v-0.7z"></path><path id="Layer" class="s0" d="m184.6 8.8h6.2v26.4h-6.2z"></path><path id="Layer" class="s0" d="m212.2 16.7v4.6c-1.3-0.5-2.5-0.9-3.9-1.2-1.2-0.3-2.3-0.4-3.5-0.4-0.9-0.1-1.8 0.1-2.6 0.4-0.5 0.2-0.9 0.8-0.9 1.3 0 0.5 0.3 0.9 0.7 1.1 0.7 0.3 1.5 0.5 2.3 0.6l1.1 0.2c3.2 0.4 5.4 1 6.5 1.9 1.2 1.1 1.8 2.6 1.7 4.2 0.1 1.8-0.8 3.5-2.3 4.5-1.6 1-3.8 1.5-6.9 1.5-1.3 0-2.7-0.1-4-0.3q-2.1-0.3-4.2-0.9v-4.5c1.2 0.6 2.5 1 3.8 1.3 1.3 0.3 2.7 0.4 4 0.4 0.9 0.1 1.9-0.1 2.8-0.5q0.9-0.4 0.9-1.5 0-0.7-0.6-1.2c-0.8-0.4-1.7-0.6-2.6-0.6l-1.1-0.2c-2.8-0.3-4.8-1-5.9-1.9-1.2-1.1-1.8-2.6-1.7-4.2-0.1-1.8 0.7-3.4 2.1-4.5 1.4-1 3.6-1.5 6.5-1.5q1.8 0 3.6 0.3c1.3 0.5 2.7 0.8 4.2 1.1z"></path><path id="Layer" fill-rule="evenodd" class="s0" d="m30.1 30.1h-12.6v-5.7l12.6-14.9h6v15.3h3.1v5.3h-3.1v4.6h-6zm0-5.3v-7.8l-6.7 7.8z"></path><path id="Layer" class="s0" d="m57 9.5v25.2h-7v-16.4q-1.5 1.2-3.3 2.1c-1.3 0.6-2.6 1.1-4 1.5v-5.7c2-0.6 3.8-1.5 5.5-2.7q1.9-1.7 3-3.9h5.8z"></path><path id="Layer" class="s0" d="m76.7 9.5v25.2h-7v-16.4q-1.5 1.2-3.3 2.1c-1.3 0.6-2.6 1.1-4 1.5v-5.7q3-0.9 5.4-2.7c1.3-1.1 2.4-2.4 3.1-3.9h5.8z"></path><path id="Layer" class="s0" d="m15.1 84l-4.4 8.4h-1.7l-0.8-6.2-3.4 6.2h-1.7l-1.1-8.4h1.5l0.8 6.4 3.4-6.4h1.4l0.8 6.4 3.4-6.4z"></path><path id="Layer" fill-rule="evenodd" class="s0" d="m20.7 89.7h-5.1c0 1 0.6 1.6 1.8 1.6 0.3 0 0.7-0.1 1-0.2 0.3-0.1 0.6-0.3 0.8-0.5l0.6 1c-0.3 0.3-0.7 0.5-1.2 0.7-0.5 0.1-1 0.2-1.4 0.2-0.6 0-1.1-0.1-1.7-0.3-0.5-0.2-0.8-0.6-1.1-1-0.3-0.4-0.4-1-0.4-1.5 0-0.7 0.1-1.3 0.5-1.9 0.3-0.6 0.8-1 1.3-1.3 0.6-0.3 1.2-0.5 1.9-0.5 0.8 0 1.6 0.2 2.2 0.8 0.6 0.5 0.8 1.3 0.8 2.1 0 0.1 0 0.5 0 0.8zm-4.3-2.1c-0.4 0.3-0.6 0.7-0.7 1.1h3.7c0-0.4-0.1-0.8-0.4-1.1-0.3-0.3-0.8-0.4-1.2-0.4-0.5-0.1-1 0.1-1.4 0.4z"></path><path id="Layer" fill-rule="evenodd" class="s0" d="m32.8 83.5l-1.8 8.9h-1.4l0.1-0.7c-1 0.8-2.4 1-3.5 0.4-0.4-0.2-0.8-0.6-1-1-0.3-0.5-0.4-1-0.4-1.5 0-0.7 0.1-1.3 0.5-1.9 0.3-0.6 0.7-1 1.3-1.3 0.6-0.3 1.2-0.5 1.8-0.5 0.5 0 0.9 0.1 1.3 0.3 0.4 0.2 0.7 0.4 0.9 0.7l0.7-3.4zm-3.6 7.4c0.3-0.2 0.6-0.5 0.8-0.9q0.3-0.6 0.3-1.2c0-0.4-0.1-0.9-0.4-1.2-0.3-0.3-0.8-0.4-1.2-0.4-0.8 0-1.6 0.4-1.9 1.2q-0.3 0.6-0.3 1.2c0 0.4 0.1 0.9 0.4 1.2 0.3 0.3 0.8 0.4 1.2 0.4 0.3 0 0.7-0.1 1.1-0.3z"></path><path id="Layer" fill-rule="evenodd" class="s0" d="m34.6 92.2c-0.5-0.2-0.8-0.6-1.1-1-0.3-0.4-0.4-1-0.4-1.5 0-0.7 0.2-1.3 0.5-1.9 0.3-0.6 0.8-1 1.3-1.3 0.6-0.3 1.3-0.5 2-0.5 0.6 0 1.1 0.1 1.7 0.3 0.5 0.2 0.8 0.6 1.1 1 0.3 0.4 0.4 1 0.4 1.5 0 0.7-0.2 1.3-0.5 1.9-0.3 0.6-0.8 1-1.4 1.3-0.6 0.3-1.3 0.5-2 0.5-0.6 0.1-1.1-0.1-1.6-0.3zm2.8-1.3c0.3-0.2 0.6-0.5 0.8-0.9q0.3-0.6 0.3-1.2c0-0.4-0.1-0.9-0.4-1.2-0.3-0.3-0.8-0.4-1.2-0.4-0.8 0-1.6 0.4-1.9 1.2q-0.3 0.6-0.3 1.2c0 0.4 0.1 0.9 0.4 1.2 0.3 0.3 0.8 0.4 1.2 0.4 0.4 0 0.8-0.1 1.1-0.3z"></path><path id="Layer" class="s0" d="m55.1 84l-1.7 8.4h-1.5l1.1-5.5-3.6 4.5h-0.7l-1.9-4.7-1.1 5.6h-1.5l1.7-8.4h1.3l2.2 5.6 4.3-5.6h1.4z"></path><path id="Layer" fill-rule="evenodd" class="s0" d="m63.1 86l-1.3 6.4h-1.4l0.1-0.7c-0.6 0.5-1.3 0.8-2.1 0.8-0.5 0-1-0.1-1.4-0.3-0.4-0.2-0.8-0.6-1-1-0.3-0.5-0.4-1-0.4-1.5 0-0.7 0.2-1.3 0.5-1.9 0.3-0.6 0.8-1 1.3-1.3 0.6-0.3 1.2-0.5 1.8-0.5 0.9-0.1 1.7 0.3 2.2 1l0.2-0.9zm-3.2 4.9c0.3-0.2 0.6-0.5 0.8-0.9q0.3-0.6 0.3-1.2c0-0.4-0.1-0.9-0.4-1.2-0.3-0.3-0.8-0.4-1.2-0.4-0.4 0-0.8 0.1-1.1 0.3-0.3 0.2-0.6 0.5-0.8 0.8q-0.3 0.6-0.3 1.2c0 0.4 0.1 0.9 0.4 1.2 0.3 0.3 0.8 0.4 1.2 0.4 0.4 0.1 0.8 0 1.1-0.2z"></path><path id="Layer" class="s0" d="m67.3 86.2c0.5-0.1 1-0.2 1.4-0.2l-0.3 1.4h-0.4c-1.1-0.1-2.1 0.8-2.2 1.9l-0.6 3.2h-1.5l1.2-6.5h1.4l-0.2 0.8q0.6-0.5 1.2-0.6z"></path><path id="Layer" class="s0" d="m73.1 88.8l2.3 3.7h-1.7l-1.7-2.8-1.3 1.1-0.3 1.7h-1.5l1.8-8.9h1.5l-1 5.3 3.5-2.8h2z"></path><path id="Layer" fill-rule="evenodd" class="s0" d="m82.6 89.7h-5.1c0 1 0.6 1.6 1.9 1.6 0.3 0 0.7-0.1 1-0.2 0.3-0.1 0.6-0.3 0.8-0.5l0.6 1c-0.3 0.3-0.7 0.5-1.2 0.7-0.5 0.1-1 0.2-1.4 0.2-0.6 0-1.2-0.1-1.7-0.3-0.5-0.2-0.8-0.6-1.1-1-0.3-0.5-0.4-1-0.4-1.5 0-0.7 0.2-1.3 0.5-1.9 0.3-0.6 0.8-1 1.3-1.3 0.6-0.3 1.2-0.5 1.9-0.5 0.8 0 1.6 0.2 2.1 0.8 0.6 0.5 0.9 1.3 0.8 2.1 0.1 0.1 0.1 0.5 0 0.8zm-4.2-2.1c-0.4 0.3-0.6 0.7-0.7 1.1h3.7c0-0.4-0.1-0.8-0.4-1.1-0.3-0.3-0.8-0.4-1.2-0.4-0.6-0.1-1.1 0.1-1.4 0.4z"></path><path id="Layer" class="s0" d="m85.5 90.3q0 0.1 0 0.3c0 0.5 0.2 0.7 0.8 0.7 0.3 0 0.6-0.1 0.8-0.2l0.3 1.1c-0.5 0.3-1 0.4-1.5 0.4-0.5 0-1-0.1-1.3-0.5-0.4-0.3-0.5-0.8-0.5-1.3 0-0.2 0-0.3 0.1-0.5l0.6-3h-1l0.2-1.2h1l0.3-1.5h1.5l-0.3 1.5h1.7l-0.2 1.2h-1.7z"></path><path id="Layer" class="s0" d="m89.8 86h1.5l-1.3 6.4h-1.5zm0.4-1.3c-0.2-0.2-0.3-0.4-0.2-0.6 0-0.3 0.1-0.5 0.3-0.7 0.2-0.2 0.5-0.3 0.7-0.3 0.2 0 0.5 0.1 0.6 0.2 0.2 0.1 0.3 0.4 0.2 0.6 0 0.3-0.1 0.5-0.3 0.7-0.2 0.2-0.5 0.3-0.7 0.3-0.2 0.1-0.4 0-0.6-0.2z"></path><path id="Layer" class="s0" d="m98.4 86.5c0.4 0.4 0.7 1 0.6 1.6 0 0.3 0 0.5-0.1 0.8l-0.7 3.6h-1.5l0.7-3.5c0-0.2 0-0.3 0.1-0.5 0-0.8-0.4-1.2-1.3-1.2-0.5 0-1 0.1-1.4 0.5-0.4 0.4-0.7 0.9-0.7 1.4l-0.7 3.3h-1.4l1.3-6.4h1.4l-0.1 0.7c0.6-0.5 1.4-0.8 2.2-0.8 0.6-0.1 1.2 0.1 1.6 0.5z"></path><path id="Layer" fill-rule="evenodd" class="s0" d="m107.9 86l-1.1 5.4c-0.1 1-0.6 1.9-1.3 2.6-0.8 0.6-1.7 0.9-2.6 0.8-1.1 0.1-2.1-0.3-3-0.9l0.8-1.1c0.3 0.2 0.6 0.4 1 0.5 0.4 0.1 0.9 0.2 1.3 0.2 0.6 0 1.1-0.1 1.6-0.4 0.4-0.4 0.7-0.9 0.7-1.4l0.1-0.3c-0.6 0.5-1.3 0.8-2.1 0.8q-0.7 0-1.5-0.3c-0.4-0.2-0.8-0.5-1-0.9-0.3-0.4-0.4-0.9-0.4-1.4 0-0.6 0.2-1.2 0.5-1.8 0.3-0.5 0.8-1 1.3-1.3 0.6-0.3 1.2-0.4 1.9-0.4 0.5 0 0.9 0.1 1.4 0.3 0.4 0.2 0.7 0.5 0.9 0.8l0.2-1zm-3.2 4.6c0.3-0.2 0.6-0.5 0.8-0.8 0.2-0.3 0.3-0.7 0.3-1.1 0-0.4-0.1-0.8-0.4-1.1-0.3-0.3-0.8-0.4-1.2-0.4-0.4 0-0.8 0.1-1.1 0.3-0.3 0.2-0.6 0.5-0.8 0.8-0.2 0.3-0.3 0.7-0.3 1.1 0 0.4 0.1 0.8 0.4 1.1 0.4 0.3 0.8 0.4 1.2 0.4 0.3 0 0.7-0.1 1.1-0.3z"></path><path id="Layer" class="s0" d="m112.5 92.3c-0.4-0.1-0.8-0.3-1.1-0.5l0.6-1.2c0.3 0.2 0.6 0.4 1 0.5 0.4 0.1 0.8 0.2 1.2 0.2 0.4 0 0.7 0 1.1-0.2 0.2-0.1 0.4-0.3 0.4-0.6 0-0.2-0.1-0.4-0.3-0.4-0.3-0.1-0.7-0.2-1-0.3-0.4-0.1-0.8-0.2-1.1-0.3-0.3-0.1-0.5-0.3-0.8-0.5q-0.3-0.4-0.3-0.9c0-0.6 0.3-1.2 0.8-1.6 0.7-0.4 1.4-0.6 2.2-0.6 0.4 0 0.9 0 1.3 0.2 0.4 0.1 0.7 0.2 1 0.4l-0.6 1.2c-0.3-0.2-0.6-0.3-0.9-0.4-0.3-0.1-0.7-0.1-1-0.1-0.4 0-0.7 0.1-1.1 0.2-0.2 0.1-0.4 0.3-0.4 0.6 0 0.2 0.1 0.4 0.3 0.4 0.3 0.1 0.7 0.2 1 0.3 0.4 0.1 0.7 0.2 1.1 0.3 0.3 0.1 0.5 0.3 0.8 0.5q0.3 0.5 0.3 0.9c0 0.6-0.3 1.2-0.8 1.6-0.7 0.4-1.4 0.6-2.2 0.6-0.5-0.1-1-0.1-1.5-0.3z"></path><path id="Layer" fill-rule="evenodd" class="s0" d="m119.6 92.2c-0.5-0.2-0.8-0.6-1.1-1-0.3-0.4-0.4-1-0.4-1.5 0-0.7 0.2-1.3 0.5-1.9 0.3-0.6 0.8-1 1.4-1.3 0.6-0.3 1.3-0.5 2-0.5 0.6 0 1.1 0.1 1.6 0.3 0.5 0.2 0.8 0.6 1.1 1 0.3 0.4 0.4 1 0.4 1.5 0 0.7-0.2 1.3-0.5 1.9-0.3 0.6-0.8 1-1.4 1.3-0.6 0.3-1.3 0.5-2 0.5-0.5 0-1.1-0.1-1.6-0.3zm2.9-1.3c0.3-0.2 0.6-0.5 0.8-0.9q0.3-0.6 0.3-1.2c0-0.4-0.1-0.9-0.4-1.2-0.3-0.3-0.8-0.4-1.2-0.4-0.4 0-0.8 0.1-1.1 0.3-0.3 0.2-0.6 0.5-0.8 0.8q-0.3 0.6-0.3 1.2c0 0.4 0.1 0.9 0.4 1.2 0.3 0.3 0.8 0.5 1.2 0.4 0.3 0.1 0.7 0 1.1-0.2z"></path><path id="Layer" class="s0" d="m136.4 86l-4.4 7c-0.3 0.6-0.7 1-1.2 1.4-0.4 0.3-0.9 0.4-1.4 0.4-0.3 0-0.6-0.1-0.9-0.2-0.3-0.1-0.5-0.2-0.7-0.4l0.8-1.1c0.3 0.3 0.7 0.4 1.1 0.4 0.2 0 0.5-0.1 0.7-0.2 0.2-0.2 0.4-0.4 0.6-0.7l0.2-0.3-1.5-6.4h1.5l1.1 4.8 3-4.8h1.1z"></path><path id="Layer" fill-rule="evenodd" class="s0" d="m137.4 92.2c-0.5-0.2-0.8-0.6-1.1-1-0.3-0.4-0.4-1-0.4-1.5 0-0.7 0.2-1.3 0.5-1.9 0.3-0.6 0.8-1 1.4-1.3 0.6-0.3 1.3-0.5 2-0.5 0.6 0 1.1 0.1 1.6 0.3 0.5 0.2 0.8 0.6 1.1 1 0.3 0.4 0.4 1 0.4 1.5 0 0.7-0.2 1.3-0.5 1.9-0.3 0.6-0.8 1-1.4 1.3-0.6 0.3-1.3 0.5-2 0.5-0.6 0-1.1-0.1-1.6-0.3zm2.9-1.3c0.3-0.2 0.6-0.5 0.8-0.9q0.3-0.6 0.3-1.2c0-0.4-0.1-0.9-0.4-1.2-0.3-0.3-0.8-0.4-1.2-0.4-0.8 0-1.6 0.4-1.9 1.2q-0.3 0.6-0.3 1.2c0 0.4 0.1 0.9 0.4 1.2 0.3 0.3 0.8 0.4 1.2 0.4 0.3 0 0.7-0.1 1.1-0.3z"></path><path id="Layer" class="s0" d="m151.1 86l-1.3 6.4h-1.4l0.1-0.7c-0.6 0.5-1.4 0.8-2.2 0.8-0.6 0-1.2-0.2-1.7-0.6-0.4-0.4-0.7-1-0.6-1.6 0-0.3 0-0.5 0.1-0.8l0.7-3.6h1.5l-0.7 3.5c0 0.2 0 0.3 0 0.5q0 0.5 0.3 0.9 0.5 0.3 0.9 0.3c0.5 0 1-0.1 1.4-0.5 0.4-0.4 0.6-0.9 0.7-1.4l0.7-3.3z"></path><path id="Layer" fill-rule="evenodd" class="s0" d="m163.1 83.5l-1.8 8.9h-1.4l0.1-0.7c-0.6 0.5-1.3 0.8-2.1 0.8-0.5 0-1-0.1-1.4-0.3-0.4-0.2-0.8-0.6-1-1-0.3-0.5-0.4-1-0.4-1.5 0-0.7 0.1-1.3 0.5-1.9 0.3-0.6 0.7-1 1.3-1.3 0.6-0.3 1.2-0.5 1.9-0.5 0.5 0 0.9 0.1 1.3 0.3 0.4 0.2 0.7 0.4 0.9 0.7l0.7-3.4zm-3.6 7.4c0.3-0.2 0.6-0.5 0.8-0.9q0.3-0.6 0.3-1.2c0-0.4-0.1-0.9-0.4-1.2-0.3-0.3-0.8-0.5-1.2-0.4-0.4 0-0.8 0.1-1.1 0.3-0.3 0.2-0.6 0.5-0.8 0.8q-0.3 0.6-0.3 1.2c0 0.4 0.1 0.9 0.4 1.2 0.3 0.3 0.8 0.4 1.2 0.4 0.4 0.1 0.8 0 1.1-0.2z"></path><path id="Layer" fill-rule="evenodd" class="s0" d="m164.9 92.2c-0.5-0.2-0.8-0.6-1.1-1-0.3-0.4-0.4-1-0.4-1.5 0-0.7 0.2-1.3 0.5-1.9 0.3-0.6 0.8-1 1.4-1.3 0.6-0.3 1.3-0.5 2-0.5 0.6 0 1.1 0.1 1.6 0.3 0.5 0.2 0.8 0.6 1.1 1 0.3 0.5 0.4 1 0.4 1.5 0 0.7-0.2 1.3-0.5 1.9-0.3 0.6-0.8 1-1.4 1.3-0.6 0.3-1.3 0.5-2 0.5-0.6 0.1-1.1-0.1-1.6-0.3zm2.8-1.3c0.3-0.2 0.6-0.5 0.8-0.9q0.3-0.6 0.3-1.2c0-0.4-0.1-0.9-0.4-1.2-0.3-0.3-0.8-0.4-1.2-0.4-0.4 0-0.8 0.1-1.1 0.3-0.3 0.2-0.6 0.5-0.8 0.8q-0.3 0.6-0.3 1.2c0 0.4 0.1 0.9 0.4 1.2 0.3 0.3 0.8 0.4 1.2 0.4 0.4 0.1 0.8 0 1.1-0.2z"></path><path id="Layer" class="s0" d="m177.6 86.5c0.4 0.4 0.7 1 0.6 1.6 0 0.3 0 0.5-0.1 0.8l-0.7 3.6h-1.5l0.7-3.5c0-0.2 0-0.3 0-0.5 0-0.8-0.4-1.2-1.3-1.2-0.5 0-1 0.1-1.4 0.5-0.4 0.4-0.6 0.9-0.7 1.4l-0.7 3.3h-1.5l1.3-6.4h1.4l-0.1 0.7c0.6-0.5 1.4-0.8 2.2-0.8 0.6-0.1 1.3 0.1 1.8 0.5z"></path><path id="Layer" class="s0" d="m182 83.7c0.2 0.2 0.3 0.4 0.3 0.7 0 0.1 0 0.3-0.1 0.4-0.1 0.2-0.1 0.4-0.2 0.5l-1.1 1.9h-1l0.9-1.9q-0.1-0.1-0.3-0.3c-0.1-0.1-0.1-0.3-0.1-0.5 0-0.3 0.1-0.6 0.3-0.8 0.2-0.2 0.5-0.3 0.7-0.3q0.3 0 0.6 0.3z"></path><path id="Layer" class="s0" d="m184.3 90.3q0 0.1 0 0.3c0 0.5 0.3 0.7 0.8 0.7 0.3 0 0.6-0.1 0.8-0.2l0.3 1.1c-0.5 0.3-1 0.4-1.5 0.4-0.5 0-1-0.1-1.3-0.5-0.3-0.3-0.5-0.8-0.5-1.3 0-0.2 0-0.3 0.1-0.5l0.6-3h-1l0.2-1.2h1l0.3-1.5h1.5l-0.3 1.5h1.7l-0.2 1.2h-1.8z"></path><path id="Layer" class="s0" d="m197.1 86.5c0.4 0.4 0.7 1 0.6 1.6 0 0.3 0 0.5-0.1 0.8l-0.7 3.6h-1.5l0.7-3.5c0-0.2 0-0.3 0-0.5 0-0.8-0.4-1.2-1.3-1.2-0.5 0-1 0.1-1.4 0.5-0.4 0.4-0.7 0.9-0.7 1.4l-0.7 3.3h-1.5l1.8-8.9h1.5l-0.6 3.1c0.6-0.5 1.3-0.7 2.1-0.7 0.7-0.1 1.3 0.1 1.8 0.5z"></path><path id="Layer" fill-rule="evenodd" class="s0" d="m206.4 86l-1.3 6.4h-1.4l0.1-0.7c-1 0.8-2.4 1-3.5 0.4-0.4-0.2-0.8-0.6-1-1-0.3-0.5-0.4-1-0.4-1.5 0-0.7 0.1-1.3 0.5-1.9 0.3-0.6 0.7-1 1.3-1.3 0.6-0.3 1.2-0.5 1.9-0.5 0.9-0.1 1.7 0.3 2.2 1l0.2-0.9zm-3.1 4.9c0.3-0.2 0.6-0.5 0.8-0.9q0.3-0.6 0.3-1.2c0-0.4-0.1-0.9-0.5-1.2-0.3-0.3-0.8-0.4-1.2-0.4-0.4 0-0.8 0.1-1.1 0.3-0.3 0.2-0.6 0.5-0.8 0.8q-0.3 0.6-0.3 1.2c0 0.4 0.1 0.9 0.4 1.2 0.3 0.3 0.8 0.4 1.2 0.4 0.5 0.1 0.9 0 1.2-0.2z"></path><path id="Layer" class="s0" d="m214.4 86l-4 6.4h-1.5l-1.5-6.4h1.5l1.1 4.8 3-4.8z"></path><path id="Layer" fill-rule="evenodd" class="s0" d="m220.5 89.7h-5.1c0 1 0.6 1.6 1.8 1.6 0.3 0 0.7-0.1 1-0.2 0.3-0.1 0.6-0.3 0.8-0.5l0.6 1c-0.3 0.3-0.8 0.5-1.2 0.7-0.5 0.1-1 0.2-1.4 0.2-0.6 0-1.2-0.1-1.7-0.3-0.5-0.2-0.8-0.6-1.1-1-0.3-0.4-0.4-1-0.4-1.5 0-0.7 0.2-1.3 0.5-1.9 0.3-0.6 0.8-1 1.3-1.3 0.6-0.3 1.2-0.5 1.9-0.5 0.8 0 1.6 0.2 2.1 0.8 0.5 0.5 0.8 1.3 0.8 2.1 0.2 0.1 0.2 0.5 0.1 0.8zm-4.2-2.1c-0.4 0.3-0.6 0.7-0.7 1.1h3.7c0-0.4-0.1-0.8-0.4-1.1-0.3-0.3-0.8-0.4-1.2-0.4-0.6-0.1-1 0.1-1.4 0.4z"></path><path id="Layer" class="s0" d="m226.7 90.3q0 0.1 0 0.3c0 0.5 0.2 0.7 0.8 0.7 0.3 0 0.6-0.1 0.8-0.2l0.3 1.1c-0.5 0.3-1 0.4-1.5 0.4-0.5 0-1-0.1-1.3-0.5-0.3-0.3-0.5-0.8-0.5-1.3 0-0.2 0-0.3 0-0.5l0.6-3h-1l0.2-1.2h1l0.3-1.5h1.5l-0.3 1.5h1.7l-0.2 1.2h-1.7z"></path><path id="Layer" fill-rule="evenodd" class="s0" d="m231 92.2c-0.5-0.2-0.8-0.6-1.1-1-0.3-0.4-0.4-1-0.4-1.5 0-0.7 0.2-1.3 0.5-1.9 0.3-0.6 0.8-1 1.4-1.3 0.6-0.3 1.3-0.5 2-0.5 0.6 0 1.1 0.1 1.6 0.3 0.5 0.2 0.8 0.6 1.1 1 0.3 0.4 0.4 1 0.4 1.5 0 0.7-0.2 1.3-0.5 1.9-0.3 0.6-0.8 1-1.4 1.3-0.6 0.3-1.3 0.5-2 0.5-0.5 0-1.1-0.1-1.6-0.3zm2.9-1.3c0.3-0.2 0.6-0.5 0.8-0.9q0.3-0.6 0.3-1.2c0-0.4-0.1-0.9-0.5-1.2-0.3-0.3-0.8-0.5-1.2-0.4-0.4 0-0.8 0.1-1.1 0.3-0.3 0.2-0.6 0.5-0.8 0.8q-0.3 0.6-0.3 1.2c0 0.4 0.1 0.9 0.4 1.2 0.3 0.3 0.8 0.4 1.2 0.4 0.4 0.2 0.8 0 1.2-0.2z"></path><path id="Layer" class="s0" d="m237.4 92.3c-0.2-0.2-0.3-0.4-0.2-0.6 0-0.3 0.1-0.5 0.3-0.7 0.2-0.2 0.4-0.3 0.7-0.3 0.2 0 0.5 0.1 0.7 0.2 0.2 0.2 0.3 0.4 0.2 0.6 0 0.3-0.1 0.5-0.3 0.7-0.2 0.2-0.4 0.3-0.7 0.3-0.3 0-0.5-0.1-0.7-0.2zm1.3-8.3h1.8l-1.4 5.6h-1.2z"></path></svg> 