<svg width="45" height="74" viewBox="0 0 45 74" fill="none" xmlns="http://www.w3.org/2000/svg">
<path d="M19.4622 73.9088L40.0267 68.2066L44.8645 14H19.4622V73.9088Z" fill="#33A9DC"/>
<path d="M19.4622 36.9845H29.757L30.4668 29.0167H19.4622V21.2351H38.9695L38.7832 23.3221L36.8728 44.7661H19.4622V36.9845Z" fill="white"/>
<path d="M19.5102 57.1923L19.4749 57.2024L10.8111 54.8611L10.2574 48.6555H2.4469L3.53679 60.8729L19.4724 65.2987L19.5102 65.2886V57.1923Z" fill="#EBEBEB"/>
<path d="M29.0951 44.436L28.1587 54.8559L19.4824 57.1972V65.2935L35.4305 60.8727L35.5489 59.5586L36.9005 44.436H29.0951Z" fill="white"/>
<path d="M19.4897 21.2351V29.0167H0.697231L0.541172 27.267L0.186264 23.3221L0 21.2351H19.4897ZM19.462 36.9845V44.7661H10.9065L10.7504 43.0164L10.398 39.0715L10.2118 36.9845H19.462Z" fill="#EBEBEB"/>
<path d="M11.8231 11.8489C11.1094 11.8489 10.4448 11.7329 9.82921 11.501C9.22258 11.2601 8.69178 10.9256 8.23681 10.4974C7.79076 10.0602 7.44284 9.54729 7.19305 8.9585C6.94327 8.36972 6.81837 7.7274 6.81837 7.03157C6.81837 6.33573 6.94327 5.69342 7.19305 5.10463C7.44284 4.51585 7.79522 4.00735 8.25019 3.57914C8.70516 3.14201 9.23596 2.80748 9.84259 2.57553C10.4492 2.33466 11.1138 2.21423 11.8364 2.21423C12.6036 2.21423 13.3039 2.34805 13.9373 2.61568C14.5707 2.87438 15.106 3.26245 15.5431 3.77986L14.4191 4.837C14.0801 4.47124 13.7009 4.19915 13.2816 4.02073C12.8623 3.83339 12.4074 3.73972 11.9167 3.73972C11.4261 3.73972 10.9756 3.82001 10.5652 3.98059C10.1637 4.14117 9.81137 4.36865 9.50805 4.66304C9.21366 4.95744 8.98171 5.30535 8.81221 5.7068C8.65164 6.10824 8.57135 6.54983 8.57135 7.03157C8.57135 7.5133 8.65164 7.95489 8.81221 8.35633C8.98171 8.75778 9.21366 9.1057 9.50805 9.40009C9.81137 9.69448 10.1637 9.92197 10.5652 10.0825C10.9756 10.2431 11.4261 10.3234 11.9167 10.3234C12.4074 10.3234 12.8623 10.2342 13.2816 10.0558C13.7009 9.86844 14.0801 9.58743 14.4191 9.21275L15.5431 10.2833C15.106 10.7918 14.5707 11.1798 13.9373 11.4475C13.3039 11.7151 12.5992 11.8489 11.8231 11.8489ZM20.1007 11.8489C19.3691 11.8489 18.6688 11.7463 17.9998 11.5411C17.3307 11.327 16.7999 11.0549 16.4074 10.7249L17.0095 9.37333C17.3842 9.66772 17.8481 9.91305 18.4012 10.1093C18.9543 10.3056 19.5208 10.4037 20.1007 10.4037C20.5913 10.4037 20.9883 10.3502 21.2916 10.2431C21.5949 10.1361 21.8179 9.99334 21.9607 9.81492C22.1034 9.62758 22.1748 9.41793 22.1748 9.18599C22.1748 8.90051 22.0722 8.67303 21.867 8.50353C21.6618 8.32511 21.3942 8.18684 21.0641 8.0887C20.743 7.98165 20.3817 7.88352 19.9802 7.79431C19.5877 7.7051 19.1907 7.60251 18.7893 7.48654C18.3967 7.36164 18.0354 7.20553 17.7054 7.01819C17.3842 6.82192 17.121 6.56321 16.9159 6.24206C16.7107 5.9209 16.6081 5.51054 16.6081 5.01096C16.6081 4.50246 16.7419 4.03857 17.0095 3.61929C17.2861 3.19108 17.7009 2.85208 18.254 2.60229C18.816 2.34358 19.5252 2.21423 20.3817 2.21423C20.9437 2.21423 21.5012 2.2856 22.0543 2.42833C22.6075 2.57107 23.0892 2.77625 23.4995 3.04388L22.9509 4.39541C22.5316 4.14563 22.099 3.96274 21.6529 3.84677C21.2069 3.72188 20.7786 3.65943 20.3683 3.65943C19.8865 3.65943 19.494 3.71742 19.1907 3.83339C18.8963 3.94936 18.6778 4.10102 18.535 4.28836C18.4012 4.4757 18.3343 4.68981 18.3343 4.93067C18.3343 5.21614 18.4324 5.44809 18.6287 5.62651C18.8339 5.79601 19.097 5.92982 19.4182 6.02795C19.7483 6.12609 20.114 6.22422 20.5155 6.32235C20.9169 6.41156 21.3139 6.51415 21.7064 6.63012C22.1079 6.74609 22.4692 6.89775 22.7903 7.08509C23.1204 7.27243 23.3836 7.52668 23.5798 7.84784C23.785 8.16899 23.8876 8.5749 23.8876 9.06555C23.8876 9.56513 23.7493 10.029 23.4728 10.4572C23.2052 10.8765 22.7903 11.2155 22.2283 11.4742C21.6663 11.724 20.9571 11.8489 20.1007 11.8489ZM28.5164 11.8489C27.7848 11.8489 27.0845 11.7463 26.4155 11.5411C25.7464 11.327 25.2156 11.0549 24.8231 10.7249L25.4252 9.37333C25.7999 9.66772 26.2638 9.91305 26.8169 10.1093C27.37 10.3056 27.9365 10.4037 28.5164 10.4037C29.007 10.4037 29.404 10.3502 29.7073 10.2431C30.0106 10.1361 30.2336 9.99334 30.3764 9.81492C30.5191 9.62758 30.5905 9.41793 30.5905 9.18599C30.5905 8.90051 30.4879 8.67303 30.2827 8.50353C30.0775 8.32511 29.8099 8.18684 29.4798 8.0887C29.1587 7.98165 28.7974 7.88352 28.3959 7.79431C28.0034 7.7051 27.6064 7.60251 27.205 7.48654C26.8124 7.36164 26.4511 7.20553 26.1211 7.01819C25.7999 6.82192 25.5367 6.56321 25.3316 6.24206C25.1264 5.9209 25.0238 5.51054 25.0238 5.01096C25.0238 4.50246 25.1576 4.03857 25.4252 3.61929C25.7018 3.19108 26.1166 2.85208 26.6697 2.60229C27.2317 2.34358 27.9409 2.21423 28.7974 2.21423C29.3594 2.21423 29.9169 2.2856 30.4701 2.42833C31.0232 2.57107 31.5049 2.77625 31.9153 3.04388L31.3666 4.39541C30.9473 4.14563 30.5147 3.96274 30.0686 3.84677C29.6226 3.72188 29.1943 3.65943 28.784 3.65943C28.3022 3.65943 27.9097 3.71742 27.6064 3.83339C27.312 3.94936 27.0935 4.10102 26.9507 4.28836C26.8169 4.4757 26.75 4.68981 26.75 4.93067C26.75 5.21614 26.8481 5.44809 27.0444 5.62651C27.2496 5.79601 27.5127 5.92982 27.8339 6.02795C28.164 6.12609 28.5297 6.22422 28.9312 6.32235C29.3326 6.41156 29.7296 6.51415 30.1221 6.63012C30.5236 6.74609 30.8849 6.89775 31.206 7.08509C31.5361 7.27243 31.7993 7.52668 31.9955 7.84784C32.2007 8.16899 32.3033 8.5749 32.3033 9.06555C32.3033 9.56513 32.165 10.029 31.8885 10.4572C31.6209 10.8765 31.206 11.2155 30.644 11.4742C30.082 11.724 29.3728 11.8489 28.5164 11.8489Z" fill="white"/>
</svg>
