<svg width="21" height="22" viewBox="0 0 21 22" fill="none" xmlns="http://www.w3.org/2000/svg">
<path d="M17.8018 0.275696H3.07816C1.38517 0.275696 0 1.6611 0 3.35437V18.082C0 19.7752 1.38517 21.1607 3.07816 21.1607H17.8033C19.4963 21.1607 20.8815 19.7752 20.8815 18.082V3.35437C20.88 1.6611 19.4963 0.275696 17.8018 0.275696ZM17.604 11.4228H15.1261V20.3894H11.4184V11.4228H9.56386V8.33182H11.4184V6.47691C11.4184 3.95548 12.465 2.4554 15.4431 2.4554H17.9188V5.54562H16.3704C15.2131 5.54562 15.1361 5.97894 15.1361 6.78478L15.1261 8.33182H17.9311L17.604 11.4228Z" fill="#A2A2A2"/>
</svg>
