<svg width="472" height="320" viewBox="0 0 472 320" fill="none" xmlns="http://www.w3.org/2000/svg">
<g clip-path="url(#clip0_141_36)">
<rect width="472" height="320" rx="20" fill="black"/>
<path opacity="0.05" d="M8.9 64.514H55.52V72.578H8.9V64.514ZM9.908 110H0.584002V21.8H61.064V29.864H9.908V110ZM78.4284 110V43.85H87.3744V110H78.4284ZM82.9644 29.234C81.1164 29.234 79.5624 28.604 78.3024 27.344C77.0424 26.084 76.4124 24.572 76.4124 22.808C76.4124 21.044 77.0424 19.574 78.3024 18.398C79.5624 17.138 81.1164 16.508 82.9644 16.508C84.8124 16.508 86.3664 17.096 87.6264 18.272C88.8864 19.448 89.5164 20.918 89.5164 22.682C89.5164 24.53 88.8864 26.084 87.6264 27.344C86.4504 28.604 84.8964 29.234 82.9644 29.234ZM140.49 135.074C134.442 135.074 128.646 134.192 123.102 132.428C117.558 130.664 113.064 128.144 109.62 124.868L114.156 118.064C117.264 120.836 121.086 123.02 125.622 124.616C130.242 126.296 135.114 127.136 140.238 127.136C148.638 127.136 154.812 125.162 158.76 121.214C162.708 117.35 164.682 111.302 164.682 103.07V86.564L165.942 75.224L165.06 63.884V43.85H173.628V101.936C173.628 113.36 170.814 121.718 165.186 127.01C159.642 132.386 151.41 135.074 140.49 135.074ZM138.852 107.48C132.552 107.48 126.882 106.136 121.842 103.448C116.802 100.676 112.812 96.854 109.872 91.982C107.016 87.11 105.588 81.524 105.588 75.224C105.588 68.924 107.016 63.38 109.872 58.592C112.812 53.72 116.802 49.94 121.842 47.252C126.882 44.564 132.552 43.22 138.852 43.22C144.732 43.22 150.024 44.438 154.728 46.874C159.432 49.31 163.17 52.922 165.942 57.71C168.714 62.498 170.1 68.336 170.1 75.224C170.1 82.112 168.714 87.95 165.942 92.738C163.17 97.526 159.432 101.18 154.728 103.7C150.024 106.22 144.732 107.48 138.852 107.48ZM139.734 99.542C144.606 99.542 148.932 98.534 152.712 96.518C156.492 94.418 159.474 91.562 161.658 87.95C163.842 84.254 164.934 80.012 164.934 75.224C164.934 70.436 163.842 66.236 161.658 62.624C159.474 59.012 156.492 56.198 152.712 54.182C148.932 52.082 144.606 51.032 139.734 51.032C134.946 51.032 130.62 52.082 126.756 54.182C122.976 56.198 119.994 59.012 117.81 62.624C115.71 66.236 114.66 70.436 114.66 75.224C114.66 80.012 115.71 84.254 117.81 87.95C119.994 91.562 122.976 94.418 126.756 96.518C130.62 98.534 134.946 99.542 139.734 99.542ZM281.178 43.22C286.554 43.22 291.216 44.27 295.164 46.37C299.196 48.386 302.304 51.494 304.488 55.694C306.756 59.894 307.89 65.186 307.89 71.57V110H298.944V72.452C298.944 65.48 297.264 60.23 293.904 56.702C290.628 53.09 285.966 51.284 279.918 51.284C275.382 51.284 271.434 52.25 268.074 54.182C264.798 56.03 262.236 58.76 260.388 62.372C258.624 65.9 257.742 70.184 257.742 75.224V110H248.796V72.452C248.796 65.48 247.116 60.23 243.756 56.702C240.396 53.09 235.692 51.284 229.644 51.284C225.192 51.284 221.286 52.25 217.926 54.182C214.566 56.03 211.962 58.76 210.114 62.372C208.35 65.9 207.468 70.184 207.468 75.224V110H198.522V43.85H207.09V61.742L205.704 58.592C207.72 53.804 210.954 50.066 215.406 47.378C219.942 44.606 225.276 43.22 231.408 43.22C237.876 43.22 243.378 44.858 247.914 48.134C252.45 51.326 255.39 56.156 256.734 62.624L253.206 61.238C255.138 55.862 258.54 51.536 263.412 48.26C268.368 44.9 274.29 43.22 281.178 43.22ZM373.605 110V95.384L373.227 92.99V68.546C373.227 62.918 371.631 58.592 368.439 55.568C365.331 52.544 360.669 51.032 354.453 51.032C350.169 51.032 346.095 51.746 342.231 53.174C338.367 54.602 335.091 56.492 332.403 58.844L328.371 52.166C331.731 49.31 335.763 47.126 340.467 45.614C345.171 44.018 350.127 43.22 355.335 43.22C363.903 43.22 370.497 45.362 375.117 49.646C379.821 53.846 382.173 60.272 382.173 68.924V110H373.605ZM350.799 110.63C345.843 110.63 341.517 109.832 337.821 108.236C334.209 106.556 331.437 104.288 329.505 101.432C327.573 98.492 326.607 95.132 326.607 91.352C326.607 87.908 327.405 84.8 329.001 82.028C330.681 79.172 333.369 76.904 337.065 75.224C340.845 73.46 345.885 72.578 352.185 72.578H374.991V79.256H352.437C346.053 79.256 341.601 80.39 339.081 82.658C336.645 84.926 335.427 87.74 335.427 91.1C335.427 94.88 336.897 97.904 339.837 100.172C342.777 102.44 346.893 103.574 352.185 103.574C357.225 103.574 361.551 102.44 365.163 100.172C368.859 97.82 371.547 94.46 373.227 90.092L375.243 96.266C373.563 100.634 370.623 104.12 366.423 106.724C362.307 109.328 357.099 110.63 350.799 110.63Z" fill="#A2A2A2"/>
<path opacity="0.05" d="M169.255 244.178H206.995V250.706H169.255V244.178ZM170.071 281H162.523V209.6H211.483V216.128H170.071V281ZM225.539 281V227.45H232.781V281H225.539ZM229.211 215.618C227.715 215.618 226.457 215.108 225.437 214.088C224.417 213.068 223.907 211.844 223.907 210.416C223.907 208.988 224.417 207.798 225.437 206.846C226.457 205.826 227.715 205.316 229.211 205.316C230.707 205.316 231.965 205.792 232.985 206.744C234.005 207.696 234.515 208.886 234.515 210.314C234.515 211.81 234.005 213.068 232.985 214.088C232.033 215.108 230.775 215.618 229.211 215.618ZM275.78 301.298C270.884 301.298 266.192 300.584 261.704 299.156C257.216 297.728 253.578 295.688 250.79 293.036L254.462 287.528C256.978 289.772 260.072 291.54 263.744 292.832C267.484 294.192 271.428 294.872 275.576 294.872C282.376 294.872 287.374 293.274 290.57 290.078C293.766 286.95 295.364 282.054 295.364 275.39V262.028L296.384 252.848L295.67 243.668V227.45H302.606V274.472C302.606 283.72 300.328 290.486 295.772 294.77C291.284 299.122 284.62 301.298 275.78 301.298ZM274.454 278.96C269.354 278.96 264.764 277.872 260.684 275.696C256.604 273.452 253.374 270.358 250.994 266.414C248.682 262.47 247.526 257.948 247.526 252.848C247.526 247.748 248.682 243.26 250.994 239.384C253.374 235.44 256.604 232.38 260.684 230.204C264.764 228.028 269.354 226.94 274.454 226.94C279.214 226.94 283.498 227.926 287.306 229.898C291.114 231.87 294.14 234.794 296.384 238.67C298.628 242.546 299.75 247.272 299.75 252.848C299.75 258.424 298.628 263.15 296.384 267.026C294.14 270.902 291.114 273.86 287.306 275.9C283.498 277.94 279.214 278.96 274.454 278.96ZM275.168 272.534C279.112 272.534 282.614 271.718 285.674 270.086C288.734 268.386 291.148 266.074 292.916 263.15C294.684 260.158 295.568 256.724 295.568 252.848C295.568 248.972 294.684 245.572 292.916 242.648C291.148 239.724 288.734 237.446 285.674 235.814C282.614 234.114 279.112 233.264 275.168 233.264C271.292 233.264 267.79 234.114 264.662 235.814C261.602 237.446 259.188 239.724 257.42 242.648C255.72 245.572 254.87 248.972 254.87 252.848C254.87 256.724 255.72 260.158 257.42 263.15C259.188 266.074 261.602 268.386 264.662 270.086C267.79 271.718 271.292 272.534 275.168 272.534ZM389.67 226.94C394.022 226.94 397.796 227.79 400.992 229.49C404.256 231.122 406.772 233.638 408.54 237.038C410.376 240.438 411.294 244.722 411.294 249.89V281H404.052V250.604C404.052 244.96 402.692 240.71 399.972 237.854C397.32 234.93 393.546 233.468 388.65 233.468C384.978 233.468 381.782 234.25 379.062 235.814C376.41 237.31 374.336 239.52 372.84 242.444C371.412 245.3 370.698 248.768 370.698 252.848V281H363.456V250.604C363.456 244.96 362.096 240.71 359.376 237.854C356.656 234.93 352.848 233.468 347.952 233.468C344.348 233.468 341.186 234.25 338.466 235.814C335.746 237.31 333.638 239.52 332.142 242.444C330.714 245.3 330 248.768 330 252.848V281H322.758V227.45H329.694V241.934L328.572 239.384C330.204 235.508 332.822 232.482 336.426 230.306C340.098 228.062 344.416 226.94 349.38 226.94C354.616 226.94 359.07 228.266 362.742 230.918C366.414 233.502 368.794 237.412 369.882 242.648L367.026 241.526C368.59 237.174 371.344 233.672 375.288 231.02C379.3 228.3 384.094 226.94 389.67 226.94ZM464.492 281V269.168L464.186 267.23V247.442C464.186 242.886 462.894 239.384 460.31 236.936C457.794 234.488 454.02 233.264 448.988 233.264C445.52 233.264 442.222 233.842 439.094 234.998C435.966 236.154 433.314 237.684 431.138 239.588L427.874 234.182C430.594 231.87 433.858 230.102 437.666 228.878C441.474 227.586 445.486 226.94 449.702 226.94C456.638 226.94 461.976 228.674 465.716 232.142C469.524 235.542 471.428 240.744 471.428 247.748V281H464.492ZM446.03 281.51C442.018 281.51 438.516 280.864 435.524 279.572C432.6 278.212 430.356 276.376 428.792 274.064C427.228 271.684 426.446 268.964 426.446 265.904C426.446 263.116 427.092 260.6 428.384 258.356C429.744 256.044 431.92 254.208 434.912 252.848C437.972 251.42 442.052 250.706 447.152 250.706H465.614V256.112H447.356C442.188 256.112 438.584 257.03 436.544 258.866C434.572 260.702 433.586 262.98 433.586 265.7C433.586 268.76 434.776 271.208 437.156 273.044C439.536 274.88 442.868 275.798 447.152 275.798C451.232 275.798 454.734 274.88 457.658 273.044C460.65 271.14 462.826 268.42 464.186 264.884L465.818 269.882C464.458 273.418 462.078 276.24 458.678 278.348C455.346 280.456 451.13 281.51 446.03 281.51Z" fill="#A2A2A2"/>
<path d="M208.22 245.533C223.797 245.533 236.44 232.838 236.44 217.195V188.857H208.22C192.643 188.857 180 201.552 180 217.195C180 232.838 192.643 245.533 208.22 245.533Z" fill="#0ACF83"/>
<path d="M180 160.519C180 144.876 192.643 132.181 208.22 132.181H236.44V188.857H208.22C192.643 188.857 180 176.161 180 160.519Z" fill="#A259FF"/>
<path d="M180 103.843C180 88.2001 192.643 75.5046 208.22 75.5046H236.44V132.181H208.22C192.643 132.181 180 119.485 180 103.843Z" fill="#F24E1E"/>
<path d="M236.44 75.5046H264.66C280.237 75.5046 292.88 88.2001 292.88 103.843C292.88 119.485 280.237 132.181 264.66 132.181H236.44V75.5046Z" fill="#FF7262"/>
<path d="M292.88 160.519C292.88 176.161 280.237 188.857 264.66 188.857C249.083 188.857 236.44 176.161 236.44 160.519C236.44 144.876 249.083 132.181 264.66 132.181C280.237 132.181 292.88 144.876 292.88 160.519Z" fill="#1ABCFE"/>
<path d="M356.519 225.194L356.999 227.628L358.341 225.541L367.127 211.874L382.743 207.97L385.048 207.394L383.024 206.148L350.524 186.148L348.576 184.95L349.019 187.194L356.519 225.194Z" fill="#FE695A" stroke="white" stroke-width="2"/>
<path d="M100.981 152.194L100.501 154.628L99.1588 152.541L90.3731 138.874L74.7575 134.97L72.452 134.394L74.4759 133.148L106.976 113.148L108.924 111.95L108.481 114.194L100.981 152.194Z" fill="#027E4E" stroke="white" stroke-width="2"/>
<rect y="152" width="68" height="30" fill="#027E4E"/>
<rect x="378" y="221" width="55" height="30" fill="#FE695A"/>
<path d="M7.166 174V160.7H12.144C13.2713 160.7 14.2403 160.884 15.051 161.251C15.8617 161.606 16.4823 162.125 16.913 162.809C17.3563 163.48 17.578 164.297 17.578 165.26C17.578 166.197 17.3563 167.008 16.913 167.692C16.4823 168.363 15.8617 168.883 15.051 169.25C14.2403 169.605 13.2713 169.782 12.144 169.782H7.945L8.572 169.136V174H7.166ZM16.248 174L12.828 169.174H14.348L17.787 174H16.248ZM8.572 169.25L7.945 168.585H12.106C13.436 168.585 14.443 168.294 15.127 167.711C15.8237 167.128 16.172 166.311 16.172 165.26C16.172 164.196 15.8237 163.373 15.127 162.79C14.443 162.207 13.436 161.916 12.106 161.916H7.945L8.572 161.251V169.25ZM26.7697 174V171.796L26.7127 171.435V167.749C26.7127 166.9 26.472 166.248 25.9907 165.792C25.522 165.336 24.819 165.108 23.8817 165.108C23.2357 165.108 22.6214 165.216 22.0387 165.431C21.456 165.646 20.962 165.931 20.5567 166.286L19.9487 165.279C20.4554 164.848 21.0634 164.519 21.7727 164.291C22.482 164.05 23.2294 163.93 24.0147 163.93C25.3067 163.93 26.301 164.253 26.9977 164.899C27.707 165.532 28.0617 166.501 28.0617 167.806V174H26.7697ZM23.3307 174.095C22.5834 174.095 21.931 173.975 21.3737 173.734C20.829 173.481 20.411 173.139 20.1197 172.708C19.8284 172.265 19.6827 171.758 19.6827 171.188C19.6827 170.669 19.803 170.2 20.0437 169.782C20.297 169.351 20.7024 169.009 21.2597 168.756C21.8297 168.49 22.5897 168.357 23.5397 168.357H26.9787V169.364H23.5777C22.615 169.364 21.9437 169.535 21.5637 169.877C21.1964 170.219 21.0127 170.643 21.0127 171.15C21.0127 171.72 21.2344 172.176 21.6777 172.518C22.121 172.86 22.7417 173.031 23.5397 173.031C24.2997 173.031 24.952 172.86 25.4967 172.518C26.054 172.163 26.4594 171.657 26.7127 170.998L27.0167 171.929C26.7634 172.588 26.32 173.113 25.6867 173.506C25.066 173.899 24.2807 174.095 23.3307 174.095ZM36.8177 163.93C37.6284 163.93 38.3377 164.088 38.9457 164.405C39.5664 164.709 40.0477 165.178 40.3897 165.811C40.7444 166.444 40.9217 167.242 40.9217 168.205V174H39.5727V168.338C39.5727 167.287 39.3067 166.495 38.7747 165.963C38.2554 165.418 37.5207 165.146 36.5707 165.146C35.8614 165.146 35.2407 165.292 34.7087 165.583C34.1894 165.862 33.7841 166.273 33.4927 166.818C33.2141 167.35 33.0747 167.996 33.0747 168.756V174H31.7257V159.902H33.0747V166.761L32.8087 166.248C33.1254 165.526 33.6321 164.962 34.3287 164.557C35.0254 164.139 35.8551 163.93 36.8177 163.93ZM48.6886 174.095C47.8399 174.095 47.0989 173.937 46.4656 173.62C45.8322 173.303 45.3382 172.828 44.9836 172.195C44.6416 171.562 44.4706 170.77 44.4706 169.82V164.025H45.8196V169.668C45.8196 170.732 46.0792 171.536 46.5986 172.081C47.1306 172.613 47.8716 172.879 48.8216 172.879C49.5182 172.879 50.1199 172.74 50.6266 172.461C51.1459 172.17 51.5386 171.752 51.8046 171.207C52.0832 170.662 52.2226 170.01 52.2226 169.25V164.025H53.5716V174H52.2796V171.264L52.4886 171.758C52.1719 172.493 51.6779 173.069 51.0066 173.487C50.3479 173.892 49.5752 174.095 48.6886 174.095ZM57.3312 174V159.902H58.6802V174H57.3312Z" fill="white"/>
<path d="M383.038 243L389.118 229.7H390.505L396.585 243H395.103L389.517 230.517H390.087L384.501 243H383.038ZM385.432 239.447L385.85 238.307H393.583L394.001 239.447H385.432ZM403.649 243.095C402.775 243.095 401.99 242.899 401.293 242.506C400.596 242.101 400.045 241.518 399.64 240.758C399.235 239.998 399.032 239.08 399.032 238.003C399.032 236.914 399.235 235.995 399.64 235.248C400.058 234.488 400.615 233.912 401.312 233.519C402.009 233.126 402.788 232.93 403.649 232.93C404.599 232.93 405.448 233.145 406.195 233.576C406.955 233.994 407.55 234.583 407.981 235.343C408.412 236.103 408.627 236.99 408.627 238.003C408.627 239.004 408.412 239.89 407.981 240.663C407.55 241.423 406.955 242.018 406.195 242.449C405.448 242.88 404.599 243.095 403.649 243.095ZM398.5 243V228.902H399.849V235.97L399.659 237.984L399.792 239.998V243H398.5ZM403.554 241.898C404.263 241.898 404.897 241.74 405.454 241.423C406.011 241.094 406.455 240.638 406.784 240.055C407.113 239.46 407.278 238.776 407.278 238.003C407.278 237.218 407.113 236.534 406.784 235.951C406.455 235.368 406.011 234.919 405.454 234.602C404.897 234.273 404.263 234.108 403.554 234.108C402.845 234.108 402.205 234.273 401.635 234.602C401.078 234.919 400.634 235.368 400.305 235.951C399.988 236.534 399.83 237.218 399.83 238.003C399.83 238.776 399.988 239.46 400.305 240.055C400.634 240.638 401.078 241.094 401.635 241.423C402.205 241.74 402.845 241.898 403.554 241.898ZM416.469 232.93C417.28 232.93 417.989 233.088 418.597 233.405C419.218 233.709 419.699 234.178 420.041 234.811C420.396 235.444 420.573 236.242 420.573 237.205V243H419.224V237.338C419.224 236.287 418.958 235.495 418.426 234.963C417.907 234.418 417.172 234.146 416.222 234.146C415.513 234.146 414.892 234.292 414.36 234.583C413.841 234.862 413.435 235.273 413.144 235.818C412.865 236.35 412.726 236.996 412.726 237.756V243H411.377V228.902H412.726V235.761L412.46 235.248C412.777 234.526 413.283 233.962 413.98 233.557C414.677 233.139 415.506 232.93 416.469 232.93ZM424.217 243V233.025H425.566V243H424.217ZM424.901 230.821C424.622 230.821 424.388 230.726 424.198 230.536C424.008 230.346 423.913 230.118 423.913 229.852C423.913 229.586 424.008 229.364 424.198 229.187C424.388 228.997 424.622 228.902 424.901 228.902C425.18 228.902 425.414 228.991 425.604 229.168C425.794 229.345 425.889 229.567 425.889 229.833C425.889 230.112 425.794 230.346 425.604 230.536C425.427 230.726 425.192 230.821 424.901 230.821Z" fill="white"/>
</g>
<defs>
<clipPath id="clip0_141_36">
<rect width="472" height="320" rx="20" fill="white"/>
</clipPath>
</defs>
</svg>
