<svg width="21" height="22" viewBox="0 0 21 22" fill="none" xmlns="http://www.w3.org/2000/svg">
<path d="M13.7746 15.029C13.7385 14.9749 13.752 14.9162 13.8152 14.8529C13.8965 14.7897 13.9597 14.7807 14.0048 14.8258C14.041 14.88 14.0274 14.9387 13.9642 15.002C13.8829 15.0652 13.8197 15.0742 13.7746 15.029ZM14.1538 14.4736C14.199 14.4104 14.2531 14.3924 14.3164 14.4194C14.3705 14.4556 14.3705 14.5098 14.3164 14.582C14.2531 14.6543 14.199 14.6768 14.1538 14.6497C14.0996 14.6136 14.0996 14.5549 14.1538 14.4736ZM14.7091 13.9318C14.6911 13.8956 14.7137 13.8595 14.7769 13.8234C14.8401 13.8053 14.8762 13.8144 14.8852 13.8505C14.9123 13.8956 14.8942 13.9318 14.831 13.9589C14.7588 13.9769 14.7182 13.9679 14.7091 13.9318ZM14.4247 14.2433C14.4067 14.2343 14.3999 14.214 14.4044 14.1824C14.4089 14.1508 14.4247 14.1259 14.4518 14.1079C14.506 14.0447 14.5511 14.0311 14.5872 14.0672C14.6234 14.1034 14.6188 14.153 14.5737 14.2162C14.5195 14.2704 14.4699 14.2795 14.4247 14.2433ZM13.2599 15.2593C13.2418 15.1961 13.2825 15.1464 13.3818 15.1103C13.4631 15.0832 13.5218 15.1013 13.5579 15.1645C13.5759 15.2277 13.5353 15.2774 13.436 15.3135C13.3547 15.3406 13.296 15.3226 13.2599 15.2593ZM12.691 15.3C12.691 15.2277 12.7452 15.1916 12.8536 15.1916C12.9439 15.1916 12.989 15.2277 12.989 15.3C12.989 15.3722 12.9393 15.4083 12.84 15.4083C12.7407 15.4083 12.691 15.3722 12.691 15.3ZM12.1628 15.2052C12.1809 15.1419 12.2396 15.1194 12.3389 15.1374C12.4382 15.1555 12.4788 15.1961 12.4608 15.2593C12.4427 15.3316 12.3885 15.3587 12.2982 15.3406C12.208 15.3226 12.1628 15.2774 12.1628 15.2052ZM3.46732 10.9109C3.46732 8.99629 4.14454 7.36166 5.49898 6.007C6.85341 4.65234 8.48777 3.97501 10.402 3.97501C12.3163 3.97501 13.9507 4.65234 15.3051 6.007C16.6595 7.36166 17.3368 8.99629 17.3368 10.9109C17.3368 12.4191 16.8943 13.776 16.0094 14.9816C15.1245 16.1873 13.9868 17.0249 12.5962 17.4945C12.4337 17.5216 12.314 17.499 12.2373 17.4268C12.1605 17.3545 12.1222 17.2642 12.1222 17.1559C12.1222 16.6862 12.1267 16.2573 12.1357 15.8689C12.1899 15.878 12.2599 15.8893 12.3457 15.9028C12.4314 15.9163 12.5917 15.9254 12.8265 15.9299C13.0612 15.9344 13.278 15.9163 13.4766 15.8757C13.6753 15.8351 13.8717 15.7448 14.0658 15.6048C14.2599 15.4648 14.3931 15.2774 14.4653 15.0426C14.673 14.5098 14.9304 14.1756 15.2374 14.0401C15.2554 14.0311 15.2757 14.0153 15.2983 13.9927L15.4067 13.8844L15.5015 13.7557L15.4473 13.6541L15.1832 13.6067C15.129 13.6067 15.0613 13.6157 14.98 13.6337C14.8988 13.6518 14.7633 13.7218 14.5737 13.8437C14.3841 13.9656 14.2351 14.1259 14.1267 14.3246C13.9823 14.5775 13.813 14.7671 13.6188 14.8936C13.4247 15.02 13.2283 15.0832 13.0296 15.0832C12.831 15.0832 12.6594 15.0674 12.515 15.0358C12.3705 15.0042 12.235 14.9613 12.1086 14.9071C12.0454 14.4827 11.8964 14.1711 11.6617 13.9724C12.1041 13.9182 12.4924 13.8347 12.8265 13.7218C13.1606 13.6089 13.4902 13.4328 13.8152 13.1935C14.1403 12.9542 14.3909 12.611 14.5669 12.1639C14.743 11.7169 14.831 11.1773 14.831 10.5451C14.831 9.83166 14.5918 9.21303 14.1132 8.68923C14.3299 8.1293 14.3073 7.51519 14.0455 6.84689C13.8739 6.79271 13.6279 6.82657 13.3073 6.94849C12.9868 7.07041 12.7136 7.20362 12.4879 7.34812L12.1357 7.56486C11.612 7.41133 11.0341 7.33457 10.402 7.33457C9.76997 7.33457 9.19207 7.41133 8.66836 7.56486C8.56903 7.50165 8.44036 7.42037 8.28234 7.32102C8.12432 7.22168 7.87375 7.10428 7.53063 6.96881C7.18751 6.83335 6.93016 6.79271 6.7586 6.84689C6.49674 7.51519 6.47417 8.1293 6.69088 8.68923C6.21231 9.21303 5.97303 9.83166 5.97303 10.5451C5.97303 11.0599 6.03623 11.5137 6.16265 11.9066C6.28906 12.2994 6.44934 12.6155 6.64347 12.8548C6.83761 13.0941 7.07915 13.2951 7.3681 13.4576C7.65704 13.6202 7.93922 13.7376 8.21462 13.8098C8.49002 13.8821 8.79929 13.9363 9.14241 13.9724C8.82637 14.2524 8.66836 14.6813 8.66836 15.2593C8.66836 15.6206 8.67061 16.0225 8.67513 16.465C8.67964 16.9075 8.6819 17.1378 8.6819 17.1559C8.6819 17.2642 8.64353 17.3545 8.56677 17.4268C8.49002 17.499 8.37038 17.5216 8.20785 17.4945C6.81729 17.0249 5.67957 16.1873 4.79467 14.9816C3.90977 13.776 3.46732 12.4191 3.46732 10.9109ZM-3.62396e-05 4.4085V17.4132C-3.62396e-05 18.4879 0.381462 19.4069 1.14446 20.17C1.90746 20.9331 2.82622 21.3147 3.90074 21.3147H16.9033C17.9779 21.3147 18.8966 20.9331 19.6596 20.17C20.4226 19.4069 20.8041 18.4879 20.8041 17.4132V4.4085C20.8041 3.33381 20.4226 2.41489 19.6596 1.65177C18.8966 0.888643 17.9779 0.50708 16.9033 0.50708H3.90074C2.82622 0.50708 1.90746 0.888643 1.14446 1.65177C0.381462 2.41489 -3.62396e-05 3.33381 -3.62396e-05 4.4085Z" fill="#A2A2A2"/>
</svg>
