<svg width="43" height="63" viewBox="0 0 43 63" fill="none" xmlns="http://www.w3.org/2000/svg">
<path d="M0.245361 14.9626L2.52094 40.4959H31.7811L30.7992 51.4475L21.3781 53.9952L11.9748 51.4512L11.346 44.4193H2.87245L4.08425 57.9748L21.3763 62.7784L38.6903 57.9748L41.0116 32.0535H10.2421L9.46953 23.407H41.7764L42.5326 14.9626H0.245361Z" fill="white"/>
<path d="M21.389 14.9626H0.245361L2.52094 40.4959H21.389V32.0535H10.2421L9.46953 23.407H21.389V14.9626ZM21.389 53.9915L21.3781 53.9952L11.9748 51.4512L11.346 44.4193H2.87245L4.08425 57.9748L21.3763 62.7784L21.3892 62.7747V53.9915H21.389Z" fill="#EBEBEB"/>
<path d="M9.61502 2.66234H11.296V11.7136H9.61502V2.66234ZM4.93421 11.7136H3.25325V2.66234H4.93421V11.7136ZM9.74432 7.8345H4.79197V6.39922H9.74432V7.8345ZM15.5574 11.7136V4.08468H12.5576V2.66234H20.2383V4.08468H17.2384V11.7136H15.5574ZM21.4998 11.7136V2.66234H22.8833L26.84 9.26978H26.1159L30.008 2.66234H31.3915L31.4045 11.7136H29.814L29.8011 5.15791H30.1373L26.8271 10.6792H26.0771L22.7152 5.15791H23.1032V11.7136H21.4998ZM33.8493 11.7136V2.66234H35.5303V10.2913H40.2628V11.7136H33.8493Z" fill="white"/>
</svg>
