<svg width="21" height="21" viewBox="0 0 21 21" fill="none" xmlns="http://www.w3.org/2000/svg">
<path d="M11.511 0.128543C12.2727 0.12562 13.0343 0.133276 13.7958 0.151509L13.9983 0.158816C14.2321 0.167168 14.4627 0.177607 14.7414 0.190134C15.852 0.24233 16.6097 0.417708 17.2746 0.675556C17.9635 0.940711 18.5438 1.29982 19.1241 1.88024C19.6547 2.40179 20.0654 3.03267 20.3275 3.72902C20.5853 4.39399 20.7607 5.15292 20.8129 6.26365C20.8254 6.54133 20.8358 6.77308 20.8442 7.00692L20.8505 7.20944C20.869 7.97066 20.877 8.73209 20.8745 9.49353L20.8755 10.2723V11.6398C20.8781 12.4016 20.8701 13.1634 20.8515 13.925L20.8452 14.1275C20.8369 14.3613 20.8265 14.592 20.8139 14.8708C20.7617 15.9815 20.5843 16.7394 20.3275 17.4043C20.0662 18.1014 19.6555 18.7328 19.1241 19.2542C18.6022 19.7848 17.9711 20.1955 17.2746 20.4578C16.6097 20.7157 15.852 20.891 14.7414 20.9432C14.4627 20.9558 14.2321 20.9662 13.9983 20.9745L13.7958 20.9808C13.0343 20.9994 12.2727 21.0074 11.511 21.0048L10.7324 21.0059H9.36613C8.60447 21.0084 7.84281 21.0004 7.08137 20.9819L6.87888 20.9756C6.63111 20.9666 6.38339 20.9562 6.13574 20.9443C5.02519 20.8921 4.26743 20.7146 3.60152 20.4578C2.90502 20.1961 2.27413 19.7853 1.75305 19.2542C1.22183 18.7325 0.810783 18.1012 0.548569 17.4043C0.290763 16.7394 0.115414 15.9815 0.0632269 14.8708C0.0516026 14.6231 0.0411651 14.3753 0.0319146 14.1275L0.026696 13.925C0.00745305 13.1634 -0.00124576 12.4016 0.000602242 11.6398V9.49353C-0.00231082 8.7321 0.00534413 7.97066 0.0235647 7.20944L0.0308709 7.00692C0.0392209 6.77308 0.0496583 6.54133 0.0621832 6.26365C0.11437 5.15188 0.28972 4.39504 0.547525 3.72902C0.809894 3.03233 1.22175 2.40162 1.75409 1.88128C2.27481 1.34967 2.9053 0.938177 3.60152 0.675556C4.26743 0.417708 5.02415 0.24233 6.13574 0.190134L6.87888 0.158816L7.08137 0.153597C7.84245 0.13436 8.60376 0.12566 9.36508 0.127499L11.511 0.128543ZM10.4381 5.34813C9.74658 5.33835 9.06006 5.46612 8.41838 5.72402C7.77671 5.98191 7.19268 6.36478 6.70024 6.85039C6.2078 7.336 5.81677 7.91465 5.54987 8.55272C5.28297 9.19078 5.14553 9.87555 5.14553 10.5672C5.14553 11.2589 5.28297 11.9436 5.54987 12.5817C5.81677 13.2198 6.2078 13.7984 6.70024 14.284C7.19268 14.7696 7.77671 15.1525 8.41838 15.4104C9.06006 15.6683 9.74658 15.7961 10.4381 15.7863C11.8221 15.7863 13.1496 15.2364 14.1283 14.2575C15.107 13.2786 15.6568 11.951 15.6568 10.5667C15.6568 9.18236 15.107 7.85474 14.1283 6.87587C13.1496 5.89701 11.8221 5.34813 10.4381 5.34813ZM10.4381 7.43597C10.854 7.42831 11.2673 7.50361 11.6538 7.6575C12.0403 7.81138 12.3923 8.04076 12.6892 8.33222C12.9861 8.62369 13.2219 8.9714 13.3829 9.35505C13.5439 9.7387 13.6269 10.1506 13.627 10.5667C13.627 10.9828 13.5442 11.3947 13.3833 11.7784C13.2224 12.1621 12.9867 12.5099 12.6899 12.8014C12.3931 13.093 12.0412 13.3225 11.6548 13.4765C11.2683 13.6305 10.855 13.706 10.4391 13.6984C9.60864 13.6984 8.8122 13.3685 8.22498 12.7812C7.63776 12.1938 7.30786 11.3973 7.30786 10.5667C7.30786 9.73609 7.63776 8.93951 8.22498 8.3522C8.8122 7.76488 9.60864 7.43493 10.4391 7.43493L10.4381 7.43597ZM15.9177 3.78226C15.581 3.79574 15.2626 3.939 15.0291 4.18205C14.7956 4.42509 14.6652 4.74907 14.6652 5.08611C14.6652 5.42316 14.7956 5.74713 15.0291 5.99017C15.2626 6.23322 15.581 6.37649 15.9177 6.38996C16.2637 6.38996 16.5956 6.25248 16.8403 6.00777C17.0849 5.76305 17.2224 5.43115 17.2224 5.08507C17.2224 4.73899 17.0849 4.40708 16.8403 4.16236C16.5956 3.91765 16.2637 3.78017 15.9177 3.78017V3.78226Z" fill="#A2A2A2"/>
</svg>
