<svg width="70" height="69" viewBox="0 0 70 69" fill="none" xmlns="http://www.w3.org/2000/svg">
<path d="M53.1612 0.151123H16.6763C7.78656 0.151123 0.580017 7.35886 0.580017 16.2501V52.741C0.580017 61.6322 7.78656 68.8399 16.6763 68.8399H53.1612C62.0509 68.8399 69.2575 61.6322 69.2575 52.741V16.2501C69.2575 7.35886 62.0509 0.151123 53.1612 0.151123Z" fill="#001E36"/>
<path d="M16.0323 47.9221V18.4718C16.0323 18.2714 16.1182 18.1571 16.3186 18.1571C16.805 18.1571 17.2629 18.1571 17.921 18.1284C18.6078 18.0997 19.3232 18.0997 20.0959 18.0712C20.8685 18.0425 21.6982 18.0425 22.5854 18.0138C23.4723 17.9854 24.3308 17.9854 25.1893 17.9854C27.5358 17.9854 29.4816 18.2714 31.0842 18.8724C32.5207 19.3603 33.8305 20.1621 34.9186 21.2194C35.8407 22.1446 36.5531 23.2573 37.0077 24.4821C37.4369 25.6841 37.6657 26.9149 37.6657 28.2028C37.6657 30.6641 37.0935 32.696 35.9488 34.2989C34.8041 35.9016 33.2017 37.1036 31.3418 37.7905C29.3957 38.5061 27.2496 38.7637 24.9033 38.7637C24.2165 38.7637 23.7586 38.7637 23.4723 38.735C23.1863 38.7063 22.7855 38.7063 22.242 38.7063V47.8934C22.2705 48.0939 22.1275 48.2656 21.9271 48.2943H16.3757C16.1469 48.2943 16.0323 48.1797 16.0323 47.9221ZM22.2705 23.6806V33.2971C22.6713 33.3258 23.0431 33.3545 23.3865 33.3545H24.9033C26.0193 33.3545 27.1353 33.1828 28.1939 32.8393C29.1098 32.5817 29.9108 32.0378 30.5405 31.3223C31.1414 30.6069 31.4276 29.6337 31.4276 28.3745C31.4545 27.4801 31.2261 26.5965 30.7693 25.8271C30.2829 25.0831 29.5961 24.5108 28.7664 24.1958C27.7075 23.7665 26.5628 23.5948 25.3897 23.6235C24.6457 23.6235 23.9874 23.6235 23.4439 23.6522C22.8714 23.6235 22.4709 23.6522 22.2705 23.6806ZM55.5219 31.5514C54.6634 31.0934 53.7478 30.7786 52.7748 30.5782C51.7159 30.3493 50.6573 30.2061 49.5697 30.2061C48.9975 30.1776 48.3966 30.2635 47.8528 30.4065C47.481 30.4924 47.166 30.6928 46.9659 30.9788C46.8226 31.2079 46.7368 31.494 46.7368 31.7516C46.7368 32.0091 46.8513 32.2667 47.023 32.4959C47.2806 32.8106 47.624 33.0682 47.9961 33.2686C48.6595 33.6123 49.3373 33.9274 50.0277 34.2131C51.5729 34.7283 53.061 35.4436 54.4346 36.3022C55.3789 36.9032 56.1515 37.7047 56.695 38.6779C57.153 39.5936 57.3818 40.5952 57.3534 41.6256C57.3818 42.9709 56.9813 44.316 56.2374 45.4322C55.4392 46.5746 54.3254 47.4598 53.0323 47.9793C51.6301 48.5803 49.9131 48.8953 47.8528 48.8953C46.5367 48.8953 45.249 48.7807 43.9613 48.5232C42.952 48.3488 41.9705 48.0409 41.0425 47.6074C40.8421 47.4928 40.6991 47.2924 40.7275 47.0635V42.0836C40.7275 41.9977 40.7562 41.8832 40.8421 41.826C40.9279 41.7689 41.0138 41.7973 41.0996 41.8547C42.2156 42.5129 43.3888 42.9709 44.648 43.2569C45.7353 43.5432 46.8801 43.6862 48.0245 43.6862C49.1121 43.6862 49.8847 43.5432 50.3998 43.2856C50.8574 43.0852 51.1724 42.5988 51.1724 42.0836C51.1724 41.683 50.9433 41.3108 50.4856 40.9387C50.0277 40.5668 49.0834 40.1375 47.6811 39.5936C46.2427 39.0867 44.8768 38.3939 43.6179 37.533C42.7212 36.8937 41.9782 36.0626 41.443 35.1001C40.9851 34.1844 40.7562 33.1828 40.7849 32.1809C40.7849 30.9504 41.1283 29.7768 41.7577 28.718C42.4732 27.5731 43.532 26.6573 44.7623 26.0847C46.1074 25.3978 47.7957 25.0831 49.8273 25.0831C51.0007 25.0831 52.2026 25.169 53.3757 25.3407C54.2342 25.4553 55.0639 25.6841 55.8366 25.9989C55.9511 26.0276 56.0657 26.1421 56.1228 26.2565C56.1515 26.371 56.1799 26.4856 56.1799 26.5999V31.2651C56.1799 31.3797 56.1228 31.494 56.037 31.5514C55.7794 31.6085 55.6364 31.6085 55.5219 31.5514Z" fill="#31A8FF"/>
</svg>
