<svg width="59" height="52" viewBox="0 0 59 52" fill="none" xmlns="http://www.w3.org/2000/svg">
<path d="M29.4957 31.1903C32.3675 31.1903 34.6953 28.8618 34.6953 25.9898C34.6953 23.1178 32.3675 20.7893 29.4957 20.7893C26.6241 20.7893 24.296 23.1178 24.296 25.9898C24.296 28.8618 26.6241 31.1903 29.4957 31.1903Z" fill="#00D8FF"/>
<path d="M29.4959 15.4163C36.477 15.4163 42.9624 16.4181 47.8524 18.1021C53.744 20.1306 57.3665 23.2056 57.3665 25.9901C57.3665 28.8917 53.5275 32.1584 47.2005 34.255C42.4172 35.84 36.1228 36.6673 29.4959 36.6673C22.7015 36.6673 16.2674 35.8907 11.4301 34.2374C5.31016 32.1453 1.62421 28.8365 1.62421 25.9901C1.62421 23.2282 5.08301 20.1769 10.8919 18.1514C15.8 16.4399 22.4453 15.4163 29.4948 15.4163H29.4959Z" stroke="#00D8FF" stroke-width="2.4836"/>
<path d="M20.2926 20.7333C23.7804 14.6848 27.8877 9.56628 31.7891 6.17102C36.4893 2.0797 40.9626 0.4774 43.374 1.86812C45.8872 3.31766 46.7988 8.27619 45.4541 14.8052C44.4382 19.7412 42.0095 25.6079 38.6987 31.3498C35.3042 37.2366 31.4176 42.4231 27.5694 45.7872C22.7001 50.0444 17.9924 51.5851 15.5272 50.1631C13.135 48.7844 12.2203 44.2627 13.368 38.2178C14.3376 33.1101 16.771 26.8412 20.2914 20.7333H20.2926Z" stroke="#00D8FF" stroke-width="2.4836"/>
<path d="M20.3014 31.3651C16.8038 25.3233 14.4225 19.2068 13.4286 14.1306C12.2321 8.01438 13.078 3.33822 15.4875 1.94332C17.9984 0.489323 22.7484 2.17581 27.7324 6.60192C31.5005 9.94812 35.3699 14.9816 38.6902 20.7179C42.0943 26.5991 44.6457 32.5576 45.6382 37.5719C46.894 43.9175 45.8776 48.7659 43.4146 50.1918C41.0249 51.5755 36.6517 50.1107 31.9886 46.0971C28.0487 42.7063 23.8335 37.4671 20.3014 31.3651Z" stroke="#00D8FF" stroke-width="2.4836"/>
</svg>
