<svg width="21" height="22" viewBox="0 0 21 22" fill="none" xmlns="http://www.w3.org/2000/svg">
<path d="M2.97202 0.430054C1.33277 0.430054 0 1.76304 0 3.40257V18.2651C0 19.9047 1.33277 21.2376 2.97202 21.2376H17.8321C19.4714 21.2376 20.8041 19.9047 20.8041 18.2651V3.40257C20.8041 1.76304 19.4714 0.430054 17.8321 0.430054H2.97202ZM16.7687 4.33148L11.9485 9.83992L17.6185 17.3362H13.1791L9.7055 12.7892L5.72578 17.3362H3.51999L8.67459 11.4423L3.23672 4.33148H7.78762L10.9315 8.48835L14.5629 4.33148H16.7687ZM15.0133 16.0172L7.12356 5.58086H5.80937L13.7874 16.0172H15.0087H15.0133Z" fill="#A2A2A2"/>
</svg>
