<svg width="65" height="65" viewBox="0 0 65 65" fill="none" xmlns="http://www.w3.org/2000/svg">
<path d="M5.01234 32.9057C5.01234 43.7996 11.3423 53.2141 20.5211 57.6757L7.39478 21.705C5.82127 25.2292 5.00942 29.046 5.01234 32.9057ZM51.1066 31.5168C51.1066 28.1156 49.8851 25.76 48.8374 23.9265C47.4423 21.6595 46.1348 19.7396 46.1348 17.4726C46.1348 14.9425 48.0534 12.5876 50.7557 12.5876C50.8779 12.5876 50.9934 12.6026 51.1124 12.6094C46.2166 8.12348 39.6942 5.38452 32.5299 5.38452C22.9167 5.38452 14.4587 10.3177 9.53856 17.7899C10.184 17.8091 10.7925 17.8229 11.3093 17.8229C14.1876 17.8229 18.643 17.4732 18.643 17.4732C20.1262 17.386 20.3014 19.5651 18.8194 19.7406C18.8194 19.7406 17.3287 19.9161 15.67 20.003L25.6905 49.8143L31.7125 31.7503L27.4253 20.002C25.9436 19.9151 24.5399 19.7396 24.5399 19.7396C23.0569 19.6527 23.2308 17.385 24.7137 17.4726C24.7137 17.4726 29.2579 17.8217 31.9618 17.8217C34.8398 17.8217 39.2955 17.4726 39.2955 17.4726C40.78 17.385 40.9542 19.5641 39.4719 19.7396C39.4719 19.7396 37.978 19.9151 36.3225 20.002L46.267 49.5874L49.0116 40.4141C50.2014 36.6071 51.1066 33.873 51.1066 31.5168Z" fill="white"/>
<path d="M33.013 35.3134L24.7567 59.3086C27.2809 60.0522 29.8988 60.4299 32.5302 60.4299C35.6425 60.4311 38.7323 59.9035 41.668 58.8697C41.5916 58.7494 41.5261 58.6225 41.4723 58.4905L33.013 35.3134ZM56.6757 19.7017C56.8008 20.6397 56.8628 21.5851 56.8611 22.5314C56.8611 25.3243 56.3395 28.464 54.7687 32.3897L46.3632 56.6958C54.5441 51.9243 60.0468 43.06 60.0468 32.9065C60.0471 28.1213 58.8252 23.6216 56.6757 19.7017Z" fill="white"/>
<path d="M32.5302 0.824219C14.843 0.824219 0.452759 15.2159 0.452759 32.9057C0.452759 50.5978 14.843 64.9888 32.5302 64.9888C50.2165 64.9888 64.6089 50.5978 64.6089 32.9057C64.6083 15.2159 50.2165 0.824219 32.5302 0.824219ZM32.5302 63.5184C15.6539 63.5184 1.92354 49.7854 1.92354 32.9057C1.92354 16.0269 15.6536 2.29524 32.5302 2.29524C49.4055 2.29524 63.1349 16.0269 63.1349 32.9057C63.1349 49.7854 49.4055 63.5184 32.5302 63.5184Z" fill="white"/>
</svg>
