<svg width="63" height="61" viewBox="0 0 63 61" fill="none" xmlns="http://www.w3.org/2000/svg">
<path d="M52.3742 0.272461H11.0873C5.4201 0.272461 0.825928 4.87311 0.825928 10.5483V50.3461C0.825928 56.0212 5.4201 60.6219 11.0873 60.6219H52.3742C58.0414 60.6219 62.6356 56.0212 62.6356 50.3461V10.5483C62.6356 4.87311 58.0414 0.272461 52.3742 0.272461Z" fill="#470137"/>
<path d="M33.3189 16.1433L25.6065 28.8909L33.8578 42.4273C33.911 42.522 33.9257 42.6333 33.8994 42.7387C33.8866 42.7836 33.8591 42.7948 33.8168 42.7965L33.77 42.7957L33.713 42.7943C33.6821 42.7943 33.6475 42.7957 33.6092 42.802H27.66L27.5431 42.8001C27.2225 42.7916 26.9914 42.7457 26.8507 42.5102C26.3002 41.4363 25.7473 40.3637 25.1919 39.2923C24.6952 38.3367 24.1849 37.3882 23.6612 36.4472L23.4299 36.0328C22.8035 34.918 22.1884 33.7968 21.5848 32.6695H21.5432C20.9857 33.7851 20.4121 34.8924 19.8225 35.9912C19.2278 37.0986 18.6403 38.1992 18.0602 39.2923C17.4796 40.3863 16.8853 41.4728 16.2773 42.5518C16.1795 42.7718 16.0171 42.8177 15.7908 42.8252L15.6967 42.8267H10.0162L9.99158 42.8274L9.91045 42.8347C9.8653 42.8373 9.83826 42.8276 9.82957 42.7595C9.81399 42.6582 9.83616 42.5548 9.89186 42.4688L17.8943 29.3061L10.099 16.1022C10.0162 15.992 10.0024 15.902 10.0575 15.8324C10.0881 15.7969 10.1265 15.7691 10.1697 15.751C10.2129 15.733 10.2597 15.7252 10.3064 15.7284H16.1527C16.2802 15.7214 16.4077 15.7427 16.526 15.7908C16.625 15.8471 16.7102 15.9252 16.7747 16.0193C17.2723 17.1267 17.8252 18.234 18.4334 19.3409C19.0369 20.4408 19.652 21.5343 20.2785 22.6212C20.8955 23.6913 21.4696 24.7856 21.9993 25.9015H22.0408C22.5838 24.7858 23.1436 23.6785 23.7201 22.5799C24.2863 21.5003 24.8669 20.4135 25.4614 19.3201C26.0483 18.2408 26.6219 17.1543 27.1822 16.0609C27.214 15.9584 27.271 15.8655 27.348 15.7908C27.4504 15.7389 27.5655 15.7172 27.6798 15.7284H33.1115C33.1615 15.716 33.2141 15.7201 33.2615 15.7401C33.3089 15.7602 33.3485 15.7951 33.3744 15.8397C33.4003 15.8843 33.411 15.936 33.4049 15.9872C33.3989 16.0384 33.3764 16.0862 33.3409 16.1235L33.3192 16.1438L33.3189 16.1433ZM45.5046 43.3376L45.2188 43.3407C43.3102 43.3698 41.4192 42.9727 39.6832 42.1782C38.0659 41.4287 36.714 40.2051 35.8063 38.6694C34.891 37.1472 34.4211 35.2501 34.3975 32.979L34.3965 32.7941C34.381 30.8883 34.8673 29.0122 35.8065 27.3546C36.7465 25.7141 38.1169 24.3624 39.7691 23.446L39.9113 23.3686C41.7077 22.3719 43.8778 21.8736 46.4211 21.8736L46.5322 21.8748L46.6592 21.8789L46.8017 21.8852L46.96 21.8944L47.2261 21.9133L47.5274 21.9375L47.7479 21.9568V13.7767C47.7479 13.5833 47.8309 13.4861 47.9966 13.4861H53.2212C53.255 13.4813 53.2894 13.4844 53.3218 13.4952C53.3542 13.506 53.3836 13.5242 53.4077 13.5483C53.4319 13.5725 53.4501 13.602 53.4608 13.6344C53.4716 13.6668 53.4747 13.7013 53.4699 13.7352V38.2751C53.4699 38.6871 53.4858 39.131 53.5177 39.6059L53.5949 40.683L53.636 41.3061C53.6411 41.3924 53.6201 41.4782 53.5756 41.5523C53.5312 41.6264 53.4655 41.6854 53.3871 41.7215C52.0392 42.2843 50.6353 42.7018 49.1992 42.9669C47.98 43.1923 46.7443 43.3162 45.5046 43.3376ZM47.7479 38.1919V26.8563C47.5238 26.7956 47.295 26.7539 47.0639 26.7318C46.7814 26.7033 46.4976 26.6895 46.2137 26.6902C45.2076 26.6802 44.2132 26.9079 43.3113 27.3546C42.4329 27.7919 41.6828 28.4501 41.1345 29.2647C40.5871 30.0665 40.3039 31.1134 40.2853 32.4055L40.2844 32.545C40.2642 33.4501 40.4118 34.3511 40.7197 35.2022C40.9703 35.8882 41.3666 36.5116 41.881 37.0294C42.3734 37.5057 42.9695 37.8611 43.6223 38.0674C44.312 38.291 45.0328 38.4032 45.7577 38.3998C46.1444 38.3998 46.5037 38.3858 46.8357 38.358C47.1005 38.3381 47.3629 38.2944 47.6199 38.2275L47.7479 38.1919Z" fill="#FF61F6"/>
</svg>
