<svg width="21" height="18" viewBox="0 0 21 18" fill="none" xmlns="http://www.w3.org/2000/svg">
<path d="M16.2606 0.584106C16.882 0.584106 17.4974 0.70653 18.0715 0.944386C18.6457 1.18224 19.1674 1.53087 19.6068 1.97038C20.0462 2.40988 20.3948 2.93164 20.6326 3.50588C20.8704 4.08011 20.9928 4.69558 20.9928 5.31713V12.89C20.9928 13.5115 20.8704 14.127 20.6326 14.7012C20.3948 15.2754 20.0462 15.7972 19.6068 16.2367C19.1674 16.6762 18.6457 17.0248 18.0715 17.2627C17.4974 17.5006 16.882 17.623 16.2606 17.623H4.90322C4.28178 17.623 3.66642 17.5006 3.09228 17.2627C2.51814 17.0248 1.99646 16.6762 1.55703 16.2367C0.669563 15.3491 0.17099 14.1452 0.17099 12.89V5.31713C0.17099 4.06185 0.669563 2.85799 1.55703 1.97038C2.4445 1.08276 3.64816 0.584106 4.90322 0.584106H16.2606ZM7.74257 6.26373V11.9434C7.7427 12.1108 7.78721 12.2751 7.87158 12.4197C7.95594 12.5643 8.07713 12.6839 8.22279 12.7664C8.36845 12.8489 8.53337 12.8912 8.70073 12.8891C8.86809 12.8871 9.03191 12.8406 9.17549 12.7546L13.9077 9.91478C14.0477 9.83062 14.1634 9.71169 14.2438 9.56954C14.3242 9.42739 14.3664 9.26685 14.3664 9.10354C14.3664 8.94023 14.3242 8.7797 14.2438 8.63755C14.1634 8.49539 14.0477 8.37646 13.9077 8.2923L9.17549 5.45249C9.03191 5.36644 8.86809 5.32002 8.70073 5.31795C8.53337 5.31587 8.36845 5.35823 8.22279 5.44069C8.07713 5.52316 7.95594 5.64278 7.87158 5.78737C7.78721 5.93195 7.7427 6.09633 7.74257 6.26373Z" fill="#A2A2A2"/>
</svg>
